<?xml version="1.0" standalone="no"?>
<!DOCTYPE svg PUBLIC "-//W3C//DTD SVG 1.1//EN" "http://www.w3.org/Graphics/SVG/1.1/DTD/svg11.dtd">
<svg xmlns="http://www.w3.org/2000/svg">
<metadata>Generated by Fontastic.me</metadata>
<defs>
<font id="nebula" horiz-adv-x="512">
<font-face font-family="nebula" units-per-em="512" ascent="480" descent="-32"/>
<missing-glyph horiz-adv-x="512" />

<glyph glyph-name="user" unicode="&#57344;" d="M498 59c-3 2-62 40-149 59 32 40 53 94 61 131 12 50 8 147-40 209-28 35-68 54-114 54-46 0-86-19-114-54-48-62-52-159-40-209 8-37 29-91 61-131-87-19-146-57-149-59-11-8-17-23-13-36 4-14 17-23 31-23l448 0c14 0 27 9 31 23 4 13-2 28-13 36z m-174 79l-5-7c-38-44-88-44-126 0l-5 7c-45 56-67 131-57 202 8 68 48 140 125 140 77 0 117-72 125-140 10-71-12-146-57-202z m-292-106c2 1 56 37 137 55l40 8c14-9 30-15 47-15 17 0 33 6 47 15l40-8c80-18 134-53 137-55z"/>
<glyph glyph-name="search-alt-1" unicode="&#57345;" d="M320 512c-106 0-192-86-192-192 0-32 8-63 22-90l-133-133 0 0c-11-11-17-25-17-41 0-31 25-56 56-56 16 0 30 6 41 17l0 0 133 133c27-14 58-22 90-22 106 0 192 86 192 192 0 106-86 192-192 192z m-243-475c-5-5-13-9-21-9-15 0-28 13-28 28 0 8 4 15 9 21l0 0 129 129c11-15 25-29 40-40z m243 123c-88 0-160 72-160 160 0 88 72 160 160 160 88 0 160-72 160-160 0-88-72-160-160-160z m0 272c-62 0-112-50-112-112 0-4 4-8 8-8 4 0 8 4 8 8 0 53 43 96 96 96 4 0 8 4 8 8 0 4-4 8-8 8z"/>
<glyph glyph-name="clock" unicode="&#57346;" d="M256 491c32 0 62-7 91-19 29-12 54-29 75-50 21-21 38-46 50-75 12-29 19-59 19-91 0-32-7-62-19-91-12-29-29-54-50-75-21-21-46-38-75-50-29-12-59-19-91-19-32 0-62 7-91 19-29 12-54 29-75 50-21 21-38 46-50 75-12 29-19 59-19 91 0 32 7 62 19 91 12 29 29 54 50 75 21 21 46 38 75 50 29 12 59 19 91 19z m0-43c-26 0-51-5-75-15-23-10-44-24-61-41-17-17-31-38-41-61-10-24-15-49-15-75 0-26 5-51 15-75 10-23 24-44 41-61 17-17 38-31 61-41 24-10 49-15 75-15 26 0 51 5 75 15 23 10 44 24 61 41 17 17 31 38 41 61 10 24 15 49 15 75 0 26-5 51-15 75-10 23-24 44-41 61-17 17-38 31-61 41-24 10-49 15-75 15z m0-43c6 0 11-2 15-6 4-4 6-9 6-15l0-119 58-58c4-4 6-9 6-15 0-6-2-11-6-15-4-4-9-6-15-6-6 0-11 2-15 6l-64 64c-4 4-6 9-6 15l0 128c0 6 2 11 6 15 4 4 9 6 15 6z"/>
<glyph glyph-name="back" unicode="&#57347;" d="M178 434c6 0 11-2 15-6 5-4 7-9 7-15 0-6-2-11-7-15l-99-99 205 0c26 0 51-5 74-16 24-10 44-23 62-40 17-18 30-38 40-62 11-23 16-48 16-74l0-22c0-6-2-11-7-15-4-4-9-6-15-6-5 0-10 2-15 6-4 5-6 10-6 15l0 22c0 20-4 39-12 58-8 18-18 34-32 47-13 14-29 24-47 32-19 8-38 12-58 12l-205 0 99-100c5-4 7-9 7-15 0-5-2-10-7-15-4-4-9-6-15-6-6 0-11 2-15 6l-135 136c-5 4-7 9-7 15 0 6 2 11 7 15l135 136c4 4 9 6 15 6z"/>
<glyph glyph-name="loader" unicode="&#57348;" d="M347 187c5 0 10-2 15-7l60-60c4-4 6-9 6-15 0-6-2-11-6-15-4-4-9-6-15-6-6 0-11 2-15 6l-60 60c-5 4-7 9-7 15 0 6 2 11 7 16 4 4 9 6 15 6z m-181 0c5 0 10-2 15-6 4-5 6-10 6-16 0-5-2-10-6-15l-61-60c-4-4-9-6-15-6-6 0-11 2-15 6-4 4-6 9-6 15 0 6 2 11 6 15l60 60c5 5 10 7 16 7z m-123 90l85 0c6 0 11-2 15-6 4-4 6-9 6-15 0-6-2-11-6-15-4-4-9-6-15-6l-85 0c-6 0-11 2-15 6-5 4-7 9-7 15 0 6 2 11 7 15 4 4 9 6 15 6z m213-128c6 0 11-2 15-6 4-4 6-9 6-15l0-85c0-6-2-11-6-15-4-5-9-7-15-7-6 0-11 2-15 7-4 4-6 9-6 15l0 85c0 6 2 11 6 15 4 4 9 6 15 6z m-151 279c6 0 11-2 15-6l61-60c4-5 6-10 6-15 0-6-2-11-6-15-5-5-10-7-15-7-6 0-12 2-16 6l-60 61c-4 4-6 9-6 15 0 6 2 11 6 15 4 4 9 6 15 6z m279-151l85 0c6 0 11-2 15-6 5-4 7-9 7-15 0-6-2-11-7-15-4-4-9-6-15-6l-85 0c-6 0-11 2-15 6-4 4-6 9-6 15 0 6 2 11 6 15 4 4 9 6 15 6z m-128 214c6 0 11-2 15-7 4-4 6-9 6-15l0-85c0-6-2-11-6-15-4-4-9-6-15-6-6 0-11 2-15 6-4 4-6 9-6 15l0 85c0 6 2 11 6 15 4 5 9 7 15 7z m151-63c6 0 11-2 15-6 4-4 6-9 6-15 0-6-2-11-6-15l-60-61c-4-4-9-6-15-6-6 0-12 2-16 6-4 4-6 10-6 16 0 6 2 11 7 15l60 60c4 4 9 6 15 6z"/>
<glyph glyph-name="search" unicode="&#57349;" d="M213 491c26 0 51-5 75-16 24-10 44-23 61-41 17-17 31-37 41-61 10-23 15-48 15-74 0-23-3-44-11-65-7-20-17-39-31-55l122-121c4-4 6-9 6-15 0-6-2-12-6-16-4-4-10-6-16-6-6 0-11 2-15 6l-121 122c-16-14-35-24-55-31-21-8-42-11-65-11-26 0-51 5-74 15-24 10-44 24-61 41-18 17-31 37-41 61-11 24-16 49-16 75 0 26 5 51 16 74 10 24 23 44 41 61 17 18 37 31 61 41 23 11 48 16 74 16z m0-43c-20 0-39-4-58-12-18-8-34-18-47-32-14-13-24-29-32-47-8-19-12-38-12-58 0-21 4-40 12-58 8-19 18-35 32-48 13-13 29-24 47-32 19-8 38-12 58-12 21 0 40 4 58 12 19 8 35 19 48 32 13 13 24 29 32 48 8 18 12 37 12 58 0 20-4 39-12 58-8 18-19 34-32 47-13 14-29 24-48 32-18 8-37 12-58 12z"/>
<glyph glyph-name="eye" unicode="&#57350;" d="M256 448c23 0 46-4 68-11 22-7 41-16 58-27 16-11 32-24 46-38 15-13 27-27 37-41 10-13 19-26 26-37 7-11 13-20 16-27l5-11c-1-2-2-4-3-7-1-3-5-8-10-17-5-9-10-17-15-26-6-8-13-18-23-30-9-11-18-22-28-32-10-10-21-20-35-30-13-10-27-19-41-26-14-7-30-13-47-17-18-5-36-7-54-7-23 0-46 4-68 11-22 7-41 16-57 27-17 11-33 24-47 37-15 14-27 27-37 41-10 14-19 26-26 37-7 11-13 21-16 28l-5 10c1 2 2 4 3 7 2 3 5 9 10 17 5 9 10 18 15 26 6 9 13 19 23 30 9 12 18 23 28 33 10 10 21 20 35 30 13 10 27 19 41 26 14 7 30 13 47 17 18 5 36 7 54 7z m0-43c-16 0-31-2-46-6-15-4-28-9-40-16-12-6-24-14-36-23-11-10-21-19-30-28-8-9-16-18-24-28-8-11-14-20-19-27-4-7-9-15-13-22 4-7 9-14 13-22 5-7 11-16 19-26 8-10 16-19 24-28 9-9 19-18 30-27 12-9 24-17 36-24 12-6 25-11 40-15 15-4 30-6 46-6 16 0 31 2 46 6 15 4 28 9 40 16 12 6 24 14 36 23 11 9 21 18 30 27 8 9 16 19 24 29 8 10 14 19 19 26 5 7 9 15 13 22-4 7-8 14-13 22-5 7-11 16-19 26-8 10-16 20-24 29-9 9-19 18-30 27-12 9-24 17-36 23-12 7-25 12-40 16-15 4-30 6-46 6z m0-64c24 0 44-8 60-25 17-16 25-36 25-60 0-24-8-44-25-60-16-17-36-25-60-25-24 0-44 8-60 25-17 16-25 36-25 60 0 24 8 44 25 60 16 17 36 25 60 25z m0-42c-12 0-22-5-30-13-8-8-13-18-13-30 0-12 5-22 13-30 8-9 18-13 30-13 12 0 22 4 30 13 9 8 13 18 13 30 0 12-4 22-13 30-8 8-18 13-30 13z"/>
<glyph glyph-name="circle-plus-alt" unicode="&#57351;" d="M256 491c32 0 62-7 91-19 29-12 54-29 75-50 21-21 38-46 50-75 12-29 19-59 19-91 0-32-7-62-19-91-12-29-29-54-50-75-21-21-46-38-75-50-29-12-59-19-91-19-32 0-62 7-91 19-29 12-54 29-75 50-21 21-38 46-50 75-12 29-19 59-19 91 0 32 7 62 19 91 12 29 29 54 50 75 21 21 46 38 75 50 29 12 59 19 91 19z m0-43c-26 0-51-5-75-15-23-10-44-24-61-41-17-17-31-38-41-61-10-24-15-49-15-75 0-26 5-51 15-75 10-23 24-44 41-61 17-17 38-31 61-41 24-10 49-15 75-15 26 0 51 5 75 15 23 10 44 24 61 41 17 17 31 38 41 61 10 24 15 49 15 75 0 26-5 51-15 75-10 23-24 44-41 61-17 17-38 31-61 41-24 10-49 15-75 15z m0-85c6 0 11-2 15-7 4-4 6-9 6-15l0-64 64 0c6 0 11-2 15-6 5-4 7-9 7-15 0-6-2-11-7-15-4-4-9-6-15-6l-64 0 0-64c0-6-2-11-6-15-4-5-9-7-15-7-6 0-11 2-15 7-4 4-6 9-6 15l0 64-64 0c-6 0-11 2-15 6-5 4-7 9-7 15 0 6 2 11 7 15 4 4 9 6 15 6l64 0 0 64c0 6 2 11 6 15 4 5 9 7 15 7z"/>
<glyph glyph-name="circle-minus-alt" unicode="&#57352;" d="M256 491c32 0 62-7 91-19 29-12 54-29 75-50 21-21 38-46 50-75 12-29 19-59 19-91 0-32-7-62-19-91-12-29-29-54-50-75-21-21-46-38-75-50-29-12-59-19-91-19-32 0-62 7-91 19-29 12-54 29-75 50-21 21-38 46-50 75-12 29-19 59-19 91 0 32 7 62 19 91 12 29 29 54 50 75 21 21 46 38 75 50 29 12 59 19 91 19z m0-43c-26 0-51-5-75-15-23-10-44-24-61-41-17-17-31-38-41-61-10-24-15-49-15-75 0-26 5-51 15-75 10-23 24-44 41-61 17-17 38-31 61-41 24-10 49-15 75-15 26 0 51 5 75 15 23 10 44 24 61 41 17 17 31 38 41 61 10 24 15 49 15 75 0 26-5 51-15 75-10 23-24 44-41 61-17 17-38 31-61 41-24 10-49 15-75 15z m-85-171l170 0c6 0 11-2 15-6 5-4 7-9 7-15 0-6-2-11-7-15-4-4-9-6-15-6l-170 0c-6 0-11 2-15 6-5 4-7 9-7 15 0 6 2 11 7 15 4 4 9 6 15 6z"/>
<glyph glyph-name="circle-check-alt" unicode="&#57353;" d="M256 491c32 0 62-7 91-19 29-12 54-29 75-50 21-21 38-46 50-75 12-29 19-59 19-91 0-32-7-62-19-91-12-29-29-54-50-75-21-21-46-38-75-50-29-12-59-19-91-19-32 0-62 7-91 19-29 12-54 29-75 50-21 21-38 46-50 75-12 29-19 59-19 91 0 32 7 62 19 91 12 29 29 54 50 75 21 21 46 38 75 50 29 12 59 19 91 19z m0-43c-26 0-51-5-75-15-23-10-44-24-61-41-17-17-31-38-41-61-10-24-15-49-15-75 0-26 5-51 15-75 10-23 24-44 41-61 17-17 38-31 61-41 24-10 49-15 75-15 26 0 51 5 75 15 23 10 44 24 61 41 17 17 31 38 41 61 10 24 15 49 15 75 0 26-5 51-15 75-10 23-24 44-41 61-17 17-38 31-61 41-24 10-49 15-75 15z m72-128c6 0 11-2 15-6 4-4 6-9 6-15 0-6-2-11-6-15l-91-91c-4-4-9-6-15-6-6 0-11 2-15 6l-45 45c-4 4-6 9-6 15 0 6 2 11 6 16 4 4 9 6 15 6 6 0 11-2 15-7l30-30 76 76c4 4 9 6 15 6z"/>
<glyph glyph-name="circle-x" unicode="&#57354;" d="M256 491c32 0 62-7 91-19 29-12 54-29 75-50 21-21 38-46 50-75 12-29 19-59 19-91 0-32-7-62-19-91-12-29-29-54-50-75-21-21-46-38-75-50-29-12-59-19-91-19-32 0-62 7-91 19-29 12-54 29-75 50-21 21-38 46-50 75-12 29-19 59-19 91 0 32 7 62 19 91 12 29 29 54 50 75 21 21 46 38 75 50 29 12 59 19 91 19z m0-43c-26 0-51-5-75-15-23-10-44-24-61-41-17-17-31-38-41-61-10-24-15-49-15-75 0-26 5-51 15-75 10-23 24-44 41-61 17-17 38-31 61-41 24-10 49-15 75-15 26 0 51 5 75 15 23 10 44 24 61 41 17 17 31 38 41 61 10 24 15 49 15 75 0 26-5 51-15 75-10 23-24 44-41 61-17 17-38 31-61 41-24 10-49 15-75 15z m60-110c6 0 11-2 16-6 4-5 6-10 6-16 0-5-2-10-6-15l-46-45 46-45c4-4 6-9 6-15 0-6-2-11-6-15-5-4-10-7-16-7-6 0-11 3-15 7l-45 45-45-45c-4-4-9-7-15-7-6 0-11 3-15 7-5 4-7 9-7 15 0 6 2 11 7 15l45 45-45 45c-5 4-7 9-7 15 0 6 2 11 7 15 4 5 9 7 15 7 6 0 11-2 15-7l45-45 45 45c5 5 10 7 15 7z"/>
<glyph glyph-name="attachment" unicode="&#57355;" d="M337 512c14 0 27-3 40-8 13-5 25-13 35-23 11-11 18-22 24-35 5-13 7-26 7-40 0-14-2-28-7-40-6-13-13-25-24-36l-196-196c-6-6-13-11-21-14-8-3-16-5-24-5-8 0-16 2-24 5-9 3-16 8-22 14-6 6-11 13-14 21-3 8-4 16-4 24 0 9 1 17 4 24 3 8 8 15 14 22l182 181c4 4 9 6 15 6 5 0 10-2 15-6 4-5 6-10 6-15 0-6-2-11-6-16l-181-181c-5-4-7-9-7-15 0-6 2-11 7-15 4-4 9-6 15-6 5 0 10 2 15 6l196 197c13 12 19 27 19 45 0 17-6 32-19 45-12 12-28 18-45 18-18 0-33-6-45-18l-197-196c-10-10-18-22-23-36-5-12-8-26-8-40 0-13 3-27 8-40 5-13 13-25 23-35 11-10 23-18 36-24 13-5 26-7 40-7 13 0 27 2 40 7 13 6 25 14 35 24l196 196c4 4 9 6 15 6 6 0 11-2 15-6 5-4 7-9 7-15 0-6-2-11-7-15l-196-196c-14-15-30-25-49-33-18-7-37-11-56-11-20 0-39 4-56 11-19 8-36 18-50 33-14 14-25 30-33 49-7 18-11 37-11 56 0 20 4 39 11 56 8 19 19 35 33 50l0 0 197 196c10 10 22 18 35 23 13 5 26 8 40 8z"/>
<glyph glyph-name="angle-down" unicode="&#57356;" d="M399 302c0-3-1-5-3-7l-133-133c-2-2-5-3-7-3-2 0-5 1-7 3l-133 133c-2 2-3 4-3 7 0 2 1 4 3 6l15 15c1 1 4 2 6 2 3 0 5-1 7-2l112-113 112 113c2 1 4 2 7 2 2 0 5-1 6-2l15-15c2-2 3-4 3-6z"/>
<glyph glyph-name="angle-left" unicode="&#57357;" d="M344 357c0-3-1-5-3-7l-112-112 112-113c2-1 3-4 3-6 0-3-1-5-3-7l-14-14c-2-2-5-3-7-3-2 0-5 1-7 3l-133 133c-2 2-3 4-3 7 0 2 1 4 3 6l133 133c2 2 5 3 7 3 2 0 5-1 7-3l14-14c2-2 3-4 3-6z"/>
<glyph glyph-name="angle-right" unicode="&#57358;" d="M335 238c0-3-1-5-3-7l-133-133c-2-2-5-3-7-3-2 0-5 1-7 3l-14 14c-2 2-3 4-3 7 0 2 1 5 3 6l112 113-112 112c-2 2-3 4-3 7 0 2 1 4 3 6l14 14c2 2 5 3 7 3 2 0 5-1 7-3l133-133c2-2 3-4 3-6z"/>
<glyph glyph-name="angle-up" unicode="&#57359;" d="M399 174c0-3-1-5-3-7l-15-14c-1-2-4-3-6-3-3 0-5 1-7 3l-112 112-112-112c-2-2-4-3-7-3-2 0-5 1-6 3l-15 14c-2 2-3 4-3 7 0 2 1 4 3 6l133 133c2 2 5 3 7 3 2 0 5-1 7-3l133-133c2-2 3-4 3-6z"/>
<glyph glyph-name="file-image" unicode="&#57360;" d="M456 403c5-5 10-12 14-21 4-9 5-18 5-25l0-330c0-7-2-14-8-19-5-5-11-8-19-8l-384 0c-8 0-14 3-19 8-6 5-8 12-8 19l0 458c0 7 2 14 8 19 5 5 11 8 19 8l256 0c8 0 16-2 25-6 9-4 17-8 22-13z m-127 70l0-107 108 0c-2 5-4 9-7 11l-89 90c-2 2-6 4-12 6z m110-436l0 292-119 0c-8 0-14 3-19 8-6 5-8 12-8 20l0 118-220 0 0-438z m-37 128l0-92-292 0 0 55 55 55 36-37 110 110z m-237 54c-16 0-29 6-39 16-11 11-16 24-16 39 0 16 5 28 16 39 10 11 23 16 39 16 15 0 28-5 38-16 11-11 16-23 16-39 0-15-5-28-16-39-10-10-23-16-38-16z"/>
<glyph glyph-name="file" unicode="&#57361;" d="M456 403c5-5 10-12 14-21 4-9 5-18 5-25l0-330c0-7-2-14-8-19-5-5-11-8-19-8l-384 0c-8 0-14 3-19 8-6 5-8 12-8 19l0 458c0 7 2 14 8 19 5 5 11 8 19 8l256 0c8 0 16-2 25-6 9-4 17-8 22-13z m-127 70l0-107 108 0c-2 5-4 9-7 11l-89 90c-2 2-6 4-12 6z m110-436l0 292-119 0c-8 0-14 3-19 8-6 5-8 12-8 20l0 118-220 0 0-438z"/>
<glyph glyph-name="file-pdf" unicode="&#57362;" d="M456 403c5-5 10-12 14-21 4-9 5-18 5-25l0-330c0-7-2-14-8-19-5-5-11-8-19-8l-384 0c-8 0-14 3-19 8-6 5-8 12-8 19l0 458c0 7 2 14 8 19 5 5 11 8 19 8l256 0c8 0 16-2 25-6 9-4 17-8 22-13z m-127 70l0-107 108 0c-2 5-4 9-7 11l-89 90c-2 2-6 4-12 6z m110-436l0 292-119 0c-8 0-14 3-19 8-6 5-8 12-8 20l0 118-220 0 0-438z m-147 169c6-5 14-10 24-16 11 1 22 2 33 2 28 0 45-5 51-14 3-4 3-9 1-15 0 0-1 0-1 0l0-1 0 0c-1-8-8-11-21-11-9 0-20 2-32 6-13 3-26 8-38 15-42-5-79-13-112-24-29-50-52-75-69-75-3 0-5 1-8 2l-7 4c0 0 0 0-1 1-2 2-3 5-2 10 2 8 7 17 16 26 9 10 22 19 38 28 2 2 5 1 6-2 1 0 1 0 1-1 10 16 20 35 30 56 13 26 23 51 30 75-4 16-7 31-9 46-1 15 0 27 2 36 2 8 6 12 12 12l7 0c4 0 7-2 10-5 3-4 4-10 2-19 0-1-1-2-1-2 0-1 0-2 0-3l0-8c0-24-1-42-4-55 11-31 25-54 42-68z m-165-117c10 4 23 19 40 45-10-8-18-16-25-24-7-9-12-16-15-21z m114 262c-3-8-3-20 0-37 0 1 0 5 2 12 0 1 0 5 2 13 0 0 0 1 1 2 0 0-1 0-1 0 0 1 0 1 0 1 0 0 0 0 0 0 0 4-1 8-4 11 0-1 0-1 0-1z m-35-188c25 10 52 18 81 23-1 0-2 1-4 2-2 2-3 3-4 4-15 13-27 30-37 51-5-17-13-36-23-57-6-10-10-18-13-23z m184 4c-4 5-18 7-40 7 15-5 27-8 36-8 2 0 4 0 5 0 0 0 0 1-1 1z"/>
<glyph glyph-name="file-text" unicode="&#57363;" d="M456 403c5-5 10-12 14-21 4-9 5-18 5-25l0-330c0-7-2-14-8-19-5-5-11-8-19-8l-384 0c-8 0-14 3-19 8-6 5-8 12-8 19l0 458c0 7 2 14 8 19 5 5 11 8 19 8l256 0c8 0 16-2 25-6 9-4 17-8 22-13z m-127 70l0-107 108 0c-2 5-4 9-7 11l-89 90c-2 2-6 4-12 6z m110-436l0 292-119 0c-8 0-14 3-19 8-6 5-8 12-8 20l0 118-220 0 0-438z m-293 246c0 3 1 5 3 7 2 2 4 3 6 3l202 0c2 0 4-1 6-3 2-2 3-4 3-7l0-18c0-3-1-5-3-6-2-2-4-3-6-3l-202 0c-2 0-4 1-6 3-2 1-3 3-3 6z m211-64c2 0 4 0 6-2 2-2 3-4 3-7l0-18c0-3-1-5-3-7-2-1-4-2-6-2l-202 0c-2 0-4 1-6 2-2 2-3 4-3 7l0 18c0 3 1 5 3 7 2 2 4 2 6 2z m0-73c2 0 4-1 6-2 2-2 3-4 3-7l0-18c0-3-1-5-3-7-2-1-4-2-6-2l-202 0c-2 0-4 1-6 2-2 2-3 4-3 7l0 18c0 3 1 5 3 7 2 1 4 2 6 2z"/>
<glyph glyph-name="settings" unicode="&#57364;" d="M486 309l-49 10c-2 7-5 14-8 21l27 41c9 13 7 30-4 41l-30 30c-7 7-15 10-23 10-6 0-12-2-18-6l-41-27c-7 3-14 6-21 8l-10 49c-3 15-16 26-31 26l-44 0c-15 0-28-11-31-26l-10-49c-7-2-14-5-21-8l-41 27c-6 4-12 6-18 6-8 0-16-3-23-10l-30-30c-11-11-13-28-4-41l27-41c-3-7-6-14-8-21l-49-10c-15-3-26-16-26-31l0-44c0-15 11-28 26-31l49-10c2-7 5-14 8-21l-27-41c-9-13-7-30 4-41l30-30c7-7 15-10 23-10 6 0 12 2 18 6l41 27c7-3 14-6 21-8l10-49c3-15 16-26 31-26l44 0c15 0 28 11 31 26l10 49c7 2 14 5 21 8l41-27c6-4 12-6 18-6 8 0 16 3 23 10l30 30c11 11 13 28 4 41l-27 41c3 7 6 14 8 21l49 10c15 3 26 16 26 31l0 44c0 15-11 28-26 31z m-55-85c-11-2-20-10-24-20-2-6-4-12-7-18-5-10-4-22 2-31l28-42-31-31-42 28c-5 4-11 5-17 5-5 0-10-1-14-3-6-3-12-5-18-7-10-4-18-13-20-24l-10-49-44 0-10 49c-2 11-10 20-20 24-6 2-12 4-18 7-4 2-9 3-14 3-6 0-12-1-17-5l-42-28-31 31 28 42c6 9 7 21 2 31-3 6-5 12-7 18-4 10-13 18-24 20l-49 10 0 44 49 10c11 2 20 10 24 20 2 6 4 12 7 18 5 10 4 22-2 31l-28 42 31 31 42-28c5-4 11-5 17-5 5 0 10 1 14 3 6 2 12 5 18 7 10 4 18 13 20 24l10 49 44 0 10-49c2-11 10-20 20-24 6-2 12-4 18-7 4-2 9-3 14-3 6 0 12 1 17 5l42 28 31-31-28-42c-6-9-7-21-2-31 2-6 5-12 7-18 4-10 13-18 24-20l49-10 0-44z m-175 144c-62 0-112-50-112-112 0-62 50-112 112-112 62 0 112 50 112 112 0 62-50 112-112 112z m0-210c-54 0-98 44-98 98 0 54 44 98 98 98 54 0 98-44 98-98 0-54-44-98-98-98z m0 162c-35 0-64-29-64-64 0-35 29-64 64-64 35 0 64 29 64 64 0 35-29 64-64 64z m0-112c-26 0-48 21-48 48 0 26 22 48 48 48 26 0 48-22 48-48 0-27-22-48-48-48z"/>
<glyph glyph-name="trash" unicode="&#57365;" d="M480 403c-2 25-23 45-48 45l-48 0 0 16c0 26-22 48-48 48l-160 0c-27 0-48-22-48-48l0-16-48 0c-26 0-46-20-48-45l0 0 0-35c0-18 14-32 32-32l0-272c0-35 29-64 64-64l256 0c35 0 64 29 64 64l0 272c18 0 32 14 32 32l0 35z m-320 61c0 9 7 16 16 16l160 0c9 0 16-7 16-16l0-16-192 0z m256-400c0-18-14-32-32-32l-256 0c-18 0-32 14-32 32l0 272 320 0z m32 320l0-16-384 0 0 32c0 9 7 16 16 16l352 0c9 0 16-7 16-16z m-304-320l32 0c9 0 16 7 16 16l0 208c0 9-7 16-16 16l-32 0c-9 0-16-7-16-16l0-208c0-9 7-16 16-16z m0 224l32 0 0-208-32 0z m96-224l32 0c9 0 16 7 16 16l0 208c0 9-7 16-16 16l-32 0c-9 0-16-7-16-16l0-208c0-9 7-16 16-16z m0 224l32 0 0-208-32 0z m96-224l32 0c9 0 16 7 16 16l0 208c0 9-7 16-16 16l-32 0c-9 0-16-7-16-16l0-208c0-9 7-16 16-16z m0 224l32 0 0-208-32 0z"/>
<glyph glyph-name="key" unicode="&#57366;" d="M368 512c-88 0-160-72-160-160 0-21 4-40 11-58l-194-194c-6-6-9-11-9-20l0-48c0-17 15-32 32-32l48 0c9 0 14 3 20 9l23 23 37 0c18 0 32 14 32 32l0 32 32 0c18 0 32 14 32 32l0 38 38 37c18-7 37-11 58-11 88 0 160 72 160 160 0 88-72 160-160 160z m0-288c-24 0-46 7-65 18l-5-5-18-18-31-31c-6-6-9-14-9-22l0-38-32 0c-18 0-32-14-32-32l0-32-37 0c-9 0-17-3-23-9l-23-23-45 0 0 46 187 186c0 0 0 0 0 0l23 23c-11 19-18 41-18 65 0 71 57 128 128 128 71 0 128-57 128-128 0-71-57-128-128-128z m93 156c-18 25-40 47-65 65-4 3-9 4-14 2-22-8-37-23-45-45-1-2-1-4-1-5 0-3 1-7 3-9 18-25 40-47 65-65 4-3 9-4 14-2 22 8 37 23 45 45 1 2 1 3 1 5 0 3-1 7-3 9z m-48-44c-24 17-44 37-61 61 6 17 18 29 35 35 24-17 44-38 61-61-6-17-18-29-35-35z"/>
<glyph glyph-name="paperplane" unicode="&#57367;" d="M505 509c-3 2-6 3-9 3-3 0-6-1-9-3l-480-320c-5-3-8-9-7-15 1-6 5-11 10-13l125-50 59-103c3-5 8-8 14-8 0 0 0 0 0 0 6 0 11 3 14 8l33 55 155-62c2-1 4-1 6-1 3 0 5 1 8 2 4 2 7 7 8 11l80 480c1 7-2 13-7 16z m-455-329l371 247-270-289c-1 1-2 2-4 3z m113-53c0 0 0 0 0 0l303 325-258-403z m240-89l-136 55c-3 1-7 2-10 2l210 326z"/>
<glyph glyph-name="photo" unicode="&#57368;" d="M432 512l-352 0c-35 0-64-29-64-64l0-384c0-35 29-64 64-64l352 0c35 0 64 29 64 64l0 384c0 35-29 64-64 64z m32-448c0-18-14-32-32-32l-352 0c-18 0-32 14-32 32l0 384c0 18 14 32 32 32l352 0c18 0 32-14 32-32z m-48 384l-320 0c-9 0-16-7-16-16l0-288c0-9 7-16 16-16l320 0c9 0 16 7 16 16l0 288c0 9-7 16-16 16z m0-16l0-222-52 57c-3 3-7 5-12 5-5 0-9-2-12-5l-42-48-126 144c-3 3-7 5-12 5-5 0-9-2-12-5l-52-60 0 129z m-320-154l64 74 129-146 9-11 45-51-247 0z m268-134l-55 63 43 49 64-70 0-42z m-44 160c26 0 48 21 48 48 0 27-22 48-48 48-27 0-48-21-48-48 0-27 21-48 48-48z m0 80c18 0 32-14 32-32 0-18-14-32-32-32-18 0-32 14-32 32 0 18 14 32 32 32z"/>
<glyph glyph-name="lock" unicode="&#57369;" d="M400 304l0 64c0 80-64 144-144 144-80 0-144-64-144-144l0-64c-27 0-48-21-48-48l0-112c0-80 64-144 144-144l96 0c80 0 144 64 144 144l0 112c0 27-22 48-48 48z m-256 64c0 62 50 112 112 112 62 0 112-50 112-112l0-64-32 0 0 64c0 44-36 80-80 80-44 0-80-36-80-80l0-64-32 0z m176 0l0-64-128 0 0 64c0 35 29 64 64 64 35 0 64-29 64-64z m96-160l0-64c0-62-50-112-112-112l-96 0c-62 0-112 50-112 112l0 112c0 9 7 16 16 16 11 0 21 0 32 0l224 0c11 0 21 0 32 0 9 0 16-7 16-16z m-160 0c-18 0-32-14-32-32 0-10 5-28 11-43 4-12 9-21 21-21 13 0 17 9 21 21 6 15 11 33 11 43 0 18-14 32-32 32z"/>
<glyph glyph-name="bubble" unicode="&#57370;" d="M256 400c-95 0-176-51-176-112 0-4 4-8 8-8 4 0 8 4 8 8 0 51 75 96 160 96 4 0 8 4 8 8 0 4-4 8-8 8z m0 80c-141 0-256-86-256-192 0-66 44-124 112-159 0 0 0-1 0-1 0-29-21-60-31-76 0 0 0 0 0 0-1-2-1-3-1-6 0-8 6-14 14-14 2 0 5 0 5 0 50 8 97 54 108 68 16-3 32-4 49-4 141 0 256 86 256 192 0 106-115 192-256 192z m0-352c-15 0-30 1-45 3-1 1-3 1-4 1-10 0-19-5-25-12-7-8-26-27-49-41 6 15 11 31 11 47 0 1 0 2 0 3 0 12-7 23-17 29-60 30-95 79-95 130 0 88 100 160 224 160 123 0 224-72 224-160 0-88-100-160-224-160z"/>
<glyph glyph-name="stack" unicode="&#57371;" d="M511 217l-64 240c-4 13-17 23-31 23l-320 0c-14 0-27-10-31-23l-64-240c-1-3-1-6-1-9l0-112c0-35 29-64 64-64l384 0c35 0 64 29 64 64l0 112c0 3 0 6-1 9z m-31-121c0-18-14-32-32-32l-384 0c-18 0-32 14-32 32l0 112 64 240 320 0 64-240z m-100 320l-248 0c-7 0-13-5-15-12l-55-192c-2-5-1-10 2-14 3-4 8-6 13-6l73 0 23-46c6-11 17-18 29-18l108 0c12 0 23 7 29 18l23 46 73 0c5 0 10 2 13 6 3 4 4 9 2 14l-55 192c-2 7-8 12-15 12z m8-192l-26 0c-12 0-23-7-29-18l-23-46-108 0-23 46c-6 11-17 18-29 18l-65 0 47 176 248 0 47-176z"/>
<glyph glyph-name="logout" unicode="&#57373;" d="M280 489c28-2 56-10 81-23 26-13 49-31 69-52 19-21 34-45 44-72 11-28 17-56 17-86 0-32-6-62-19-91-11-28-28-53-50-75-22-22-47-39-75-50-29-13-59-19-91-19-30 0-58 6-86 17-27 10-51 25-72 44-21 20-39 43-52 69-13 25-21 53-23 81-1 7 1 12 5 17 4 5 9 7 16 7 5 0 10-2 14-6 4-3 6-8 7-13 2-24 9-46 19-67 11-21 25-40 43-56 17-16 37-28 59-37 22-9 46-13 70-13 26 0 51 5 75 15 22 9 43 23 61 41 18 18 32 39 41 61 10 24 15 49 15 75 0 24-4 48-13 70-9 22-21 42-37 59-16 18-35 32-56 43-21 10-43 17-67 19-5 1-10 3-13 7-4 4-6 9-6 14 0 4 1 8 2 11 2 3 4 5 7 7 3 1 5 2 7 3 3 0 5 0 8 0z m-237 2l128 0c6 0 11-2 15-7 4-4 6-9 6-15 0-6-2-11-6-15-4-4-9-6-15-6l-77 0 177-177c4-4 6-9 6-15 0-6-2-11-6-15-4-4-9-6-15-6-6 0-11 2-15 6l-177 177 0-77c0-6-2-11-6-15-4-4-9-6-15-6-6 0-11 2-15 6-5 4-7 9-7 15l0 128c0 6 2 11 7 15 4 5 9 7 15 7z"/>
<glyph glyph-name="expand" unicode="&#57374;" d="M299 235c6 0 11-2 15-7l134-134 0 98c0 6 2 11 6 15 4 4 9 6 15 6 6 0 11-2 15-6 5-4 7-9 7-15l0-149c0-6-2-11-7-15-4-5-9-7-15-7l-149 0c-6 0-11 2-15 7-4 4-6 9-6 15 0 6 2 11 6 15 4 4 9 6 15 6l98 0-134 134c-5 4-7 10-7 15 0 6 2 11 7 15 4 5 9 7 15 7z m-256 256l149 0c6 0 11-2 15-7 4-4 6-9 6-15 0-6-2-11-6-15-4-4-9-6-15-6l-98 0 134-134c5-4 7-9 7-15 0-6-2-11-7-15-4-4-9-7-15-7-5 0-11 3-15 7l-134 134 0-98c0-6-2-11-6-15-4-4-9-6-15-6-6 0-11 2-15 6-5 4-7 9-7 15l0 149c0 6 2 11 7 15 4 5 9 7 15 7z"/>
<glyph glyph-name="contract" unicode="&#57375;" d="M43 491c6 0 11-2 15-7l134-134 0 98c0 6 2 11 6 15 4 4 9 6 15 6 6 0 11-2 15-6 5-4 7-9 7-15l0-149c0-6-2-11-7-15-4-5-9-7-15-7l-149 0c-6 0-11 2-15 7-4 4-6 9-6 15 0 6 2 11 6 15 4 4 9 6 15 6l98 0-134 134c-5 4-7 9-7 15 0 6 2 12 6 16 4 4 10 6 16 6z m256-256l149 0c6 0 11-2 15-7 4-4 7-9 7-15 0-6-3-11-7-15-4-4-9-6-15-6l-98 0 134-134c5-4 7-9 7-15 0-6-2-11-7-15-4-5-9-7-15-7-6 0-11 2-15 6l-134 135 0-98c0-6-2-11-6-15-4-4-9-7-15-7-6 0-11 3-15 7-5 4-7 9-7 15l0 149c0 6 2 11 7 15 4 5 9 7 15 7z"/>
<glyph glyph-name="help" unicode="&#57376;" d="M256 491c31 0 60-6 89-18 29-12 55-29 77-51 22-22 40-48 51-77 12-29 18-58 18-89 0-31-6-60-18-89-11-29-29-55-51-77-22-22-48-40-77-51-29-12-58-18-89-18-31 0-60 6-89 18-29 11-55 29-77 51-22 22-39 48-51 77-12 29-18 58-18 89 0 31 6 60 18 89 12 29 29 55 51 77 22 22 48 39 77 51 29 12 58 18 89 18z m-89-176l-61 61c-14-17-24-36-31-57-7-20-11-41-11-63 0-22 4-43 11-63 7-21 17-40 31-57l61 61c-12 18-18 38-18 59 0 21 6 41 18 59z m209-209l-61 61c-18-12-38-18-59-18-21 0-41 6-59 18l-61-61c17-14 36-24 57-31 20-7 41-11 63-11 22 0 43 4 63 11 21 7 40 17 57 31z m-120 214c-18 0-33-6-45-19-13-12-19-27-19-45 0-18 6-33 19-45 12-13 27-19 45-19 18 0 33 6 45 19 13 12 19 27 19 45 0 18-6 33-19 45-12 13-27 19-45 19z m0 128c-22 0-43-4-63-11-21-7-40-17-57-31l61-61c18 12 38 18 59 18 21 0 41-6 59-18l61 61c-17 14-36 24-57 31-20 7-41 11-63 11z m150-72l-61-61c12-18 18-38 18-59 0-21-6-41-18-59l61-61c14 17 24 36 31 57 7 20 11 41 11 63 0 22-4 43-11 63-7 21-17 40-31 57z"/>
<glyph glyph-name="file-remove" unicode="&#57377;" d="M107 512l213 0 149-149 0-299c0-18-6-33-18-45-13-13-28-19-46-19l-298 0c-18 0-33 6-46 19-12 12-18 27-18 45l0 384c0 18 6 33 18 45 13 13 28 19 46 19z m85-299l128 0c6 0 11-2 15-6 4-4 6-9 6-15 0-6-2-11-6-15-4-4-9-6-15-6l-128 0c-6 0-11 2-15 6-4 4-6 9-6 15 0 6 2 11 6 15 4 4 9 6 15 6z m85 107l0 149-170 0c-6 0-11-2-15-6-5-4-7-9-7-15l0-384c0-6 2-11 7-15 4-4 9-6 15-6l298 0c6 0 11 2 16 6 4 4 6 9 6 15l0 256z m132 43l-89 89 0-89z"/>
<glyph glyph-name="file-plus" unicode="&#57378;" d="M107 512l213 0 149-149 0-299c0-18-6-33-18-45-13-13-28-19-46-19l-298 0c-18 0-33 6-46 19-12 12-18 27-18 45l0 384c0 18 6 33 18 45 13 13 28 19 46 19z m149-235c6 0 11-2 15-6 4-4 6-9 6-15l0-43 43 0c6 0 11-2 15-6 4-4 6-9 6-15 0-6-2-11-6-15-4-4-9-6-15-6l-43 0 0-43c0-6-2-11-6-15-4-4-9-6-15-6-6 0-11 2-15 6-4 4-6 9-6 15l0 43-43 0c-6 0-11 2-15 6-4 4-6 9-6 15 0 6 2 11 6 15 4 4 9 6 15 6l43 0 0 43c0 6 2 11 6 15 4 4 9 6 15 6z m21 43l0 149-170 0c-6 0-11-2-15-6-5-4-7-9-7-15l0-384c0-6 2-11 7-15 4-4 9-6 15-6l298 0c6 0 11 2 16 6 4 4 6 9 6 15l0 256z m132 43l-89 89 0-89z"/>
<glyph glyph-name="upload" unicode="&#57379;" d="M256 490c6 0 11-2 15-7l107-106c4-4 6-9 6-15 0-6-2-12-6-16-4-4-9-6-15-6-6 0-11 2-15 6l-71 71 0-247c0-6-2-11-6-15-4-5-9-7-15-7-6 0-11 2-15 7-4 4-6 9-6 15l0 247-70-71c-5-4-10-6-16-6-6 0-11 2-15 7-4 4-6 9-6 15 0 5 2 10 6 15l107 106c4 5 9 7 15 7z m213-299c6 0 11-2 15-6 5-4 7-9 7-15l0-86c0-17-6-33-19-45-12-12-27-19-45-19l-342 0c-17 0-32 7-45 19-12 13-19 28-19 45l0 86c0 6 2 11 7 15 4 4 9 6 15 6 6 0 11-2 15-6 4-4 6-9 6-15l0-86c0-6 2-11 6-15 4-4 9-6 15-6l342 0c6 0 11 2 15 6 4 4 6 9 6 15l0 86c0 6 2 11 6 15 4 4 9 6 15 6z"/>
<glyph glyph-name="download" unicode="&#57380;" d="M256 491c6 0 11-2 15-7 4-4 6-9 6-15l0-247 71 70c4 5 9 7 15 7 6 0 11-2 15-6 4-4 6-10 6-16 0-6-2-11-6-15l-107-107c-4-4-9-6-15-6-6 0-11 2-15 6l-107 107c-4 4-6 10-6 15 0 6 2 11 6 15 4 5 9 7 15 7 6 0 11-2 16-7l70-70 0 247c0 6 2 11 6 15 4 5 9 7 15 7z m213-299c6 0 11-2 15-6 5-4 7-9 7-15l0-86c0-17-6-33-19-45-12-12-27-19-45-19l-342 0c-17 0-32 7-45 19-12 13-19 28-19 45l0 86c0 6 2 11 7 15 4 4 9 6 15 6 6 0 11-2 15-6 4-4 6-9 6-15l0-86c0-6 2-11 6-15 4-4 9-6 15-6l342 0c6 0 11 2 15 6 4 4 6 9 6 15l0 86c0 6 2 11 6 15 4 4 9 6 15 6z"/>
<glyph glyph-name="inbox" unicode="&#57381;" d="M128 448l256 0 128-128 0-192c0-18-6-33-19-45-12-13-27-19-45-19l-384 0c-18 0-33 6-45 19-13 12-19 27-19 45l0 192z m341-320l0 149-93 0c-10-24-26-45-48-61-22-16-46-24-72-24-17 0-34 4-51 11-16 8-31 18-43 31-12 13-21 27-27 43l-92 0 0-149c0-6 2-11 6-15 4-4 9-6 15-6l384 0c6 0 11 2 15 6 4 4 6 9 6 15z m-17 192l-85 85-221 0-86-85 111 0c0-14 3-28 11-41 8-13 18-24 31-32 14-8 28-12 43-12 15 0 29 4 43 12 13 8 23 19 31 32 8 13 11 27 11 41z"/>
<glyph glyph-name="menu-alt" unicode="&#57382;" d="M64 405l384 0c6 0 11-2 15-6 4-4 6-9 6-15 0-6-2-11-6-15-4-4-9-6-15-6l-384 0c-6 0-11 2-15 6-4 4-6 9-6 15 0 6 2 11 6 15 4 4 9 6 15 6z m0-256l384 0c6 0 11-2 15-6 4-4 6-9 6-15 0-6-2-11-6-15-4-4-9-6-15-6l-384 0c-6 0-11 2-15 6-4 4-6 9-6 15 0 6 2 11 6 15 4 4 9 6 15 6z m0 128l384 0c6 0 11-2 15-6 4-4 6-9 6-15 0-6-2-11-6-15-4-4-9-6-15-6l-384 0c-6 0-11 2-15 6-4 4-6 9-6 15 0 6 2 11 6 15 4 4 9 6 15 6z"/>
<glyph glyph-name="move" unicode="&#57383;" d="M256 512c6 0 11-2 15-6l76-76c4-4 6-9 6-15 0-6-2-11-6-15-5-4-10-6-15-6-6 0-11 2-16 6l-39 39 0-162 162 0-39 39c-4 5-6 10-6 15 0 6 2 11 6 16 4 4 9 6 15 6 6 0 11-2 15-7l76-75c4-4 6-9 6-15 0-6-2-11-6-15l-76-76c-4-4-9-6-15-6-6 0-11 2-15 6-4 5-6 10-6 15 0 6 2 11 6 16l39 39-162 0 0-162 39 39c5 4 10 6 16 6 5 0 10-2 15-6 4-4 6-9 6-15 0-6-2-11-6-15l-76-76c-4-4-9-6-15-6-6 0-11 2-15 6l-75 76c-5 4-7 9-7 15 0 6 2 11 6 15 5 4 10 6 16 6 5 0 10-2 15-6l39-39 0 162-162 0 39-39c4-5 6-10 6-16 0-5-2-10-6-15-4-4-9-6-15-6-6 0-11 2-15 6l-76 76c-4 4-6 9-6 15 0 6 2 11 6 15l76 75c4 5 9 7 15 7 6 0 11-2 15-6 4-5 6-10 6-16 0-5-2-10-6-15l-39-39 162 0 0 162-39-39c-5-4-10-6-15-6-6 0-11 2-16 6-4 4-6 9-6 15 0 6 2 11 7 15l75 76c4 4 9 6 15 6z"/>
<glyph glyph-name="arrow-left" unicode="&#57384;" d="M213 427c6 0 11-2 15-7 5-4 7-9 7-15 0-6-2-11-7-15l-112-113 332 0c6 0 11-2 15-6 4-4 6-9 6-15 0-6-2-11-6-15-4-4-9-6-15-6l-332 0 112-113c5-4 7-9 7-15 0-6-2-11-7-15-4-5-9-7-15-7-6 0-11 2-15 6l-149 150c-4 4-6 9-6 15 0 6 2 11 6 15l149 149c4 5 9 7 15 7z"/>
<glyph glyph-name="arrow-right" unicode="&#57385;" d="M299 427c6 0 11-2 15-7l149-149c4-4 6-9 6-15 0-6-2-11-6-15l-149-150c-4-4-9-6-15-6-6 0-12 2-16 6-4 4-6 10-6 16 0 6 2 11 7 15l113 113-333 0c-6 0-11 2-15 6-4 4-6 9-6 15 0 6 2 11 6 15 4 4 9 6 15 6l333 0-113 113c-5 4-7 9-7 15 0 6 2 12 6 16 4 4 10 6 16 6z"/>
<glyph glyph-name="arrow-up" unicode="&#57386;" d="M256 469c6 0 11-2 15-6l150-149c4-4 6-9 6-15 0-6-2-12-6-16-4-4-10-6-16-6-6 0-11 2-15 6l-113 113 0-332c0-6-2-11-6-15-4-4-9-6-15-6-6 0-11 2-15 6-4 4-6 9-6 15l0 332-113-113c-4-4-9-6-15-6-6 0-12 2-16 6-4 4-6 10-6 16 0 6 2 11 7 15l149 149c4 4 9 6 15 6z"/>
<glyph glyph-name="arrow-down" unicode="&#57387;" d="M256 469c6 0 11-2 15-6 4-4 6-9 6-15l0-333 113 113c4 5 9 7 15 7 6 0 12-2 16-6 4-4 6-10 6-16 0-6-2-11-6-15l-150-149c-4-4-9-6-15-6-6 0-11 2-15 6l-149 149c-5 4-7 9-7 15 0 6 2 12 6 16 4 4 10 6 16 6 6 0 11-2 15-7l113-113 0 333c0 6 2 11 6 15 4 4 9 6 15 6z"/>
<glyph glyph-name="duplicate" unicode="&#57388;" d="M235 491l192 0c17 0 32-7 45-19 12-13 19-28 19-45l0-192c0-18-7-33-19-46-13-12-28-18-45-18l-86 0 0-86c0-17-6-32-18-45-13-12-28-19-46-19l-192 0c-17 0-32 7-45 19-12 13-19 28-19 45l0 192c0 18 7 33 19 46 13 12 28 18 45 18l86 0 0 86c0 17 6 32 18 45 13 12 28 19 46 19z m-64-256l0 64-86 0c-6 0-11-2-15-7-4-4-6-9-6-15l0-192c0-6 2-11 6-15 4-4 9-6 15-6l192 0c6 0 11 2 15 6 5 4 7 9 7 15l0 86-64 0c-18 0-33 6-46 18-12 13-18 28-18 46z m256 213l-192 0c-6 0-11-2-15-6-5-4-7-9-7-15l0-192c0-6 2-11 7-15 4-5 9-7 15-7l192 0c6 0 11 2 15 7 4 4 6 9 6 15l0 192c0 6-2 11-6 15-4 4-9 6-15 6z"/>
<glyph glyph-name="notification" unicode="&#57389;" d="M256 491c18 0 36-3 52-9 16-6 31-14 44-25 12-10 24-23 34-37 10-14 18-30 25-47 7-16 12-34 16-53 11-56 23-101 35-134 13-32 30-59 50-79l-196 0c3-7 4-14 4-22 0-17-6-32-19-45-12-12-27-19-45-19-18 0-33 7-45 19-13 13-19 28-19 45 0 8 1 15 4 22l-196 0c20 20 37 47 50 79 12 33 24 78 35 134 4 19 9 37 16 53 7 17 15 33 25 47 10 14 22 27 35 37 12 11 27 19 43 25 16 6 34 9 52 9z m0-384c-6 0-11-2-15-7-4-4-6-9-6-15 0-6 2-11 6-15 4-4 9-6 15-6 6 0 11 2 15 6 4 4 6 9 6 15 0 6-2 11-6 15-4 5-9 7-15 7z m0 341c-13 0-25-2-36-6-12-4-22-9-30-15-8-7-15-14-22-23-7-8-13-17-17-25-4-8-8-17-12-27-3-9-6-17-8-23-1-6-3-12-4-17-14-72-30-126-47-163l352 0c-17 37-33 91-47 163-1 5-3 11-4 17-2 6-5 14-8 23-4 10-7 19-12 27-4 8-10 17-17 25-7 9-14 16-22 23-8 6-18 11-30 15-11 4-23 6-36 6z"/>
<glyph glyph-name="pencil" unicode="&#57390;" d="M470 471c-26 26-61 41-95 41-29 0-55-11-75-30l-77-78c-1-1-1-1-1-1 0 0 0 0 0-1l0 0-166-166c-7-8-13-17-16-27l-38-137c0 0-2-11-2-16 0-31 25-56 56-56 6 0 18 3 19 3l135 36c11 3 20 8 28 16l244 246c44 45 39 119-12 170z m-214-340c-1 15-5 29-11 42l151 152c9-30 4-60-16-80 0-1 0-1 0-1l0 0-124-125c0 4 1 8 0 12z m-19 57c-6 10-13 19-21 28-10 9-21 17-33 23l152 153c12-5 24-13 34-23 9-9 15-18 20-28z m-69 59c-15 6-31 9-46 10l123 124c19 18 46 23 74 17z m-101-213c-2 0-7-2-11-2-13 0-24 11-24 24 0 3 1 7 2 9l16 61c19 1 38-7 54-22 16-16 23-36 22-54z m75 20c0 21-9 44-27 61-16 17-38 27-60 27l16 58c1 4 3 8 6 11 32 23 82 16 116-18 36-36 42-89 14-121-2-1-4-2-6-3z m317 270l-27-28c0 4 1 8 0 11-3 31-17 61-40 85-27 26-61 41-95 41l26 26c13 14 32 21 52 21 26 0 52-12 73-32 19-19 30-43 32-67 1-22-6-42-21-57z"/>
<glyph glyph-name="credit-card" unicode="&#57391;" d="M64 160l64 0 0 32-64 0z m96 0l64 0 0 32-64 0z m32 96l-128 0 0-32 128 0z m-64 32l32 0 64 64-32 0z m96-64l96 0 0 32-96 0z m256 192c-16 0-432 0-448 0-16 0-32-16-32-32 0-16 0-240 0-256 0-16 16-32 32-32 16 0 432 0 448 0 16 0 32 16 32 32 0 16 0 240 0 256 0 16-16 32-32 32z m0-128l0-144c0 0 0-16-16-16l-416 0c-16 0-16 16-16 16l0 144 32 0 64 64-96 0 0 16c0 0 0 16 16 16l416 0c16 0 16-16 16-16l0-16-192 0-64-64z"/>
<glyph glyph-name="locked" unicode="&#57393;" d="M256 491c23 0 45-6 64-18 20-11 35-26 47-46 11-20 17-41 17-64l0-86 43 0c17 0 32-6 45-18 12-13 19-28 19-46l0-128c0-17-7-32-19-45-13-12-28-19-45-19l-342 0c-17 0-32 7-45 19-12 13-19 28-19 45l0 128c0 18 7 33 19 46 13 12 28 18 45 18l43 0 0 86c0 23 6 44 17 64 12 20 27 35 47 46 19 12 41 18 64 18z m171-256l-342 0c-6 0-11-2-15-7-4-4-6-9-6-15l0-128c0-6 2-11 6-15 4-4 9-6 15-6l342 0c6 0 11 2 15 6 4 4 6 9 6 15l0 128c0 6-2 11-6 15-4 5-9 7-15 7z m-171 213c-24 0-44-8-60-25-17-17-25-37-25-60l0-86 170 0 0 86c0 23-8 43-25 60-16 17-36 25-60 25z"/>
<glyph glyph-name="unlocked" unicode="&#57394;" d="M256 491c23 0 45-6 64-18 20-11 35-26 47-46 11-20 17-41 17-64l0-22c0-6-2-11-6-15-4-4-9-6-15-6-6 0-11 2-15 6-5 4-7 9-7 15l0 22c0 23-8 43-25 60-16 17-36 25-60 25-24 0-44-8-60-25-17-17-25-37-25-60l0-86 256 0c17 0 32-6 45-18 12-13 19-28 19-46l0-128c0-17-7-32-19-45-13-12-28-19-45-19l-342 0c-17 0-32 7-45 19-12 13-19 28-19 45l0 128c0 18 7 33 19 46 13 12 28 18 45 18l43 0 0 86c0 23 6 44 17 64 12 20 27 35 47 46 19 12 41 18 64 18z m171-256l-342 0c-6 0-11-2-15-7-4-4-6-9-6-15l0-128c0-6 2-11 6-15 4-4 9-6 15-6l342 0c6 0 11 2 15 6 4 4 6 9 6 15l0 128c0 6-2 11-6 15-4 5-9 7-15 7z"/>
<glyph glyph-name="camera" unicode="&#57395;" d="M171 469l170 0 43-64 64 0c18 0 33-6 45-19 13-12 19-28 19-45l0-235c0-17-6-32-19-45-12-12-27-18-45-18l-384 0c-18 0-33 6-45 18-13 13-19 28-19 46l0 234c0 18 6 33 19 45 12 13 27 19 45 19l64 0z m85-128c14 0 28-3 41-8 14-6 25-13 34-23 10-9 18-21 23-34 6-13 9-27 9-41 0-15-3-29-9-42-5-13-13-24-23-34-9-9-20-17-34-23-13-5-27-8-41-8-14 0-28 3-41 8-14 6-25 14-34 23-10 10-17 21-23 34-6 13-9 27-9 42 0 14 3 28 9 41 6 13 13 25 23 34 9 10 20 17 34 23 13 5 27 8 41 8z m0-42c-18 0-33-7-45-19-13-13-19-28-19-45 0-18 6-33 19-46 12-12 27-18 45-18 18 0 33 6 45 18 13 13 19 28 19 46 0 17-6 32-19 45-12 12-27 19-45 19z m105 64l-42 64-125 0-43-64-87 0c-6 0-11-2-15-7-4-4-6-9-6-15l0-234c0-6 2-11 6-15 4-5 9-7 15-7l384 0c6 0 11 2 15 6 4 4 6 9 6 15l0 235c0 6-2 11-6 15-4 4-9 7-15 7z"/>
<glyph glyph-name="bubble-alt" unicode="&#57396;" d="M85 491l342 0c17 0 32-7 45-19 12-13 19-28 19-45l0-235c0-18-7-33-19-45-13-13-28-19-45-19l-171 0-149-107 0 107-22 0c-17 0-32 6-45 19-12 12-19 27-19 45l0 235c0 17 7 32 19 45 13 12 28 19 45 19z m342-43l-342 0c-6 0-11-2-15-6-4-4-6-9-6-15l0-235c0-6 2-11 6-15 4-4 9-6 15-6l64 0 0-67 93 67 185 0c6 0 11 2 15 6 4 4 6 9 6 15l0 235c0 6-2 11-6 15-4 4-9 6-15 6z"/>
<glyph glyph-name="web" unicode="&#57397;" d="M256 491c4 0 7 0 9-1 21 0 41-4 60-10 20-6 38-14 54-24 17-10 32-23 46-37 14-14 25-30 35-47 10-17 17-35 23-55 5-20 8-40 8-61 0-21-3-41-8-61-6-20-13-38-23-55-10-17-21-33-35-47-14-14-29-27-46-37-16-10-34-18-54-24-19-6-39-10-60-11-2 0-5 0-9 0-4 0-7 0-9 0-21 1-41 5-60 11-20 6-38 14-54 24-17 10-32 23-46 37-14 14-25 30-35 47-10 17-17 35-23 55-5 20-8 40-8 61 0 21 3 41 8 61 6 20 13 38 23 55 10 17 21 33 35 47 14 14 29 27 46 37 16 10 34 18 54 24 19 6 39 10 60 10 2 1 5 1 9 1z m-106-256l-85 0c5-40 20-75 46-105 26-30 58-50 96-60-14 22-27 47-37 75-11 27-18 57-20 90z m169 0l-126 0c1-15 3-29 7-43 3-14 7-27 12-38 4-11 9-22 15-32 5-11 10-20 15-27 4-6 9-13 14-19 5 6 10 13 14 20 5 7 10 15 16 26 5 11 10 21 15 32 4 11 8 24 11 38 4 14 6 28 7 43z m-112 207c-38-10-70-30-96-60-26-30-41-65-46-105l85 0c4 58 23 113 57 165z m240-207l-85 0c-4-58-23-113-57-165 38 10 70 30 96 60 26 30 41 65 46 105z m-191 201c-5-6-10-13-14-20-5-7-10-15-15-26-6-11-11-21-15-32-5-11-9-24-12-38-4-14-6-28-7-43l126 0c-1 15-3 29-7 43-3 14-7 27-11 38-5 11-10 21-15 32-6 11-11 20-16 26-4 7-9 14-14 20z m49 6c34-52 53-107 57-165l85 0c-5 40-20 75-46 105-26 30-58 50-96 60z"/>
<glyph glyph-name="trash-alt" unicode="&#57398;" d="M213 491l86 0c17 0 32-7 45-19 12-13 19-28 19-45l0-22 85 0c6 0 11-2 15-6 4-4 6-9 6-15 0-6-2-11-6-15-4-4-9-6-15-6l-21 0 0-256c0-18-7-33-19-46-13-12-28-18-45-18l-214 0c-17 0-32 6-45 18-12 13-19 28-19 46l0 256-21 0c-6 0-11 2-15 6-4 4-6 9-6 15 0 6 2 11 6 15 4 4 9 6 15 6l85 0 0 22c0 17 7 32 19 45 13 12 28 19 45 19z m171-384l0 256-256 0 0-256c0-6 2-11 6-15 4-5 9-7 15-7l214 0c6 0 11 2 15 7 4 4 6 9 6 15z m-85 341l-86 0c-6 0-11-2-15-6-4-4-6-9-6-15l0-22 128 0 0 22c0 6-2 11-6 15-4 4-9 6-15 6z"/>
<glyph glyph-name="cloud" unicode="&#57399;" d="M415 302c-7 73-68 130-143 130-58 0-107-34-130-84-7 2-14 4-22 4-40 0-72-32-72-72 0-8 2-15 4-22-31-18-52-52-52-90 0-57 47-104 104-104l0 0 288 0 0 0c66 0 120 54 120 120 0 59-42 107-97 118z m-23-206l0 0-288 0c-40 0-72 32-72 72 0 26 14 49 36 62 22 12 24 15 14 38-1 4-2 8-2 12 0 22 18 40 40 40 0 0 11 1 22-4 18-7 20 0 29 19 18 39 58 65 101 65 58 0 105-44 111-101 2-23 2-23 26-29 41-8 71-44 71-86 0-48-39-88-88-88z"/>
<glyph glyph-name="clip" unicode="&#57400;" d="M470 438c-56 56-148 56-204 0l-233-231c-44-44-44-115 0-158 43-44 114-44 158 0l234 230c31 32 31 82 0 114-32 31-82 31-114 0l-175-176c-6-6-6-16 0-23 6-6 16-6 23 0l175 176c19 19 49 19 68 0 19-19 19-49 0-68l-234-231c-31-31-81-31-113 0-31 32-31 82 0 113l232 229c43 44 114 44 158 0 44-44 44-115 0-158l-173-174c-7-6-7-16 0-22 6-7 16-7 22 0l176 175c56 56 56 148 0 204z"/>
<glyph glyph-name="star" unicode="&#57401;" d="M510 311c-4 13-16 22-29 24l-134 20-58 120c-6 13-19 21-33 21-14 0-27-8-33-21l-58-120-134-20c-13-2-25-11-29-24-4-13-1-27 9-36l97-98-22-135c-3-14 3-27 15-35 6-5 13-7 21-7 6 0 12 2 18 4l116 63 116-63c6-2 12-4 18-4 8 0 15 2 21 7 12 8 18 21 15 35l-22 135 98 98c9 9 12 23 8 36z m-133-109c-8-8-11-19-10-31l23-135-116 63c-6 3-12 4-18 4-6 0-12-1-18-4l-116-63 23 135c1 12-2 23-10 31l-98 98 133 20c12 1 23 9 28 20l58 120 58-120c5-11 16-19 28-21l133-19z"/>
<glyph glyph-name="refresh" unicode="&#57402;" d="M21 235l128 0c6 0 11-2 15-7 5-4 7-9 7-15 0-6-2-11-7-15-4-4-9-6-15-6l-72 0 58-57 0 0c17-16 36-29 57-37 20-9 42-13 64-13 22 0 44 4 64 13 11 4 22 10 31 17 10 6 18 13 25 20 7 7 13 14 19 22 6 8 10 15 13 22 4 7 7 13 9 20 2 6 6 10 11 12 5 3 11 3 16 1 6-2 10-5 12-11 3-5 3-10 1-16-4-14-11-28-20-42-9-14-19-27-30-38-21-20-44-36-71-47-25-10-52-15-80-15-28 0-54 5-80 15-27 11-50 27-71 47l-62 61 0-81c0-6-2-11-7-15-4-4-9-6-15-6-6 0-11 2-15 6-4 4-6 9-6 15l0 128c0 6 2 11 6 15 4 5 9 7 15 7z m235 234c28 0 54-5 80-15 27-11 50-27 71-47l0-1 62-60 0 81c0 6 2 11 7 15 4 4 9 6 15 6 6 0 11-2 15-6 4-4 6-9 6-15l0-128c0-6-2-11-6-15-4-5-9-7-15-7l-128 0c-6 0-11 2-15 7-5 4-7 9-7 15 0 6 2 11 7 15 4 4 9 6 15 6l72 0-58 57c-17 16-35 28-56 37-20 8-42 13-65 13-22 0-44-5-64-13-21-8-40-21-57-37-6-6-14-15-22-27-8-12-14-25-18-37-2-6-6-10-11-12-5-3-11-3-16-1-6 2-10 5-12 11-3 5-3 10-1 16 5 14 11 28 20 42 9 14 19 27 30 38 21 20 44 36 71 47 26 10 52 15 80 15z"/>
<glyph glyph-name="folder" unicode="&#57403;" d="M85 469l107 0 43-64 192 0c17 0 32-6 45-18 12-13 19-28 19-46l0-234c0-18-7-33-19-46-13-12-28-18-45-18l-342 0c-17 0-32 6-45 18-12 13-19 28-19 46l0 298c0 18 7 33 19 46 13 12 28 18 45 18z m127-106l-41 64-86 0c-6 0-11-2-15-7-4-4-6-9-6-15l0-298c0-6 2-11 6-15 4-5 9-7 15-7l342 0c6 0 11 2 15 7 4 4 6 9 6 15l0 234c0 6-2 11-6 15-4 5-9 7-15 7z"/>
<glyph glyph-name="home" unicode="&#57404;" d="M473 271l-189 175c-15 14-41 14-56 0l-189-175c-16-14-13-26 4-26l46 0 0-151c0-21 17-39 38-39l258 0c21 0 38 18 38 39l0 151 45 0c19 0 21 12 5 26z"/>
<glyph glyph-name="angle-down-circle" unicode="&#57405;" d="M0 256c0-141 115-256 256-256 141 0 256 115 256 256 0 141-115 256-256 256-141 0-256-115-256-256z m472 0c0-119-97-216-216-216-119 0-216 97-216 216 0 119 97 216 216 216 119 0 216-97 216-216z m-323 49c-7-6-7-16 0-22l96-96c6-7 16-7 22 0l96 96c3 3 5 7 5 11 0 4-2 8-5 11-6 7-16 7-22 0l-85-84-85 84c-6 7-16 7-22 0z"/>
<glyph glyph-name="toggle-off" unicode="&#57406;" d="M293 256c0 20-4 39-12 57-8 18-18 33-31 46-13 14-29 24-47 32-18 7-37 11-57 11-20 0-38-4-56-11-18-8-34-18-47-32-13-13-24-28-31-46-8-18-12-37-12-57 0-20 4-39 12-57 7-18 18-33 31-46 13-14 29-24 47-32 18-7 36-11 56-11 20 0 39 4 57 11 18 8 34 18 47 32 13 13 23 28 31 46 8 18 12 37 12 57z m219 0c0 20-4 39-12 57-7 18-18 33-31 46-13 14-29 24-47 32-18 7-36 11-56 11l-111 0c23-17 41-38 54-64 14-25 20-53 20-82 0-29-6-57-20-82-13-26-31-47-54-64l111 0c20 0 38 4 56 11 18 8 34 18 47 32 13 13 24 28 31 46 8 18 12 37 12 57z m37 0c0-25-5-48-15-71-10-23-23-42-39-58-16-17-36-30-58-39-23-10-47-15-71-15l-220 0c-24 0-48 5-71 15-22 9-42 22-58 39-16 16-29 35-39 58-10 23-15 46-15 71 0 25 5 48 15 71 10 23 23 42 39 58 16 17 36 30 58 39 23 10 47 15 71 15l220 0c24 0 48-5 71-15 22-9 42-22 58-39 16-16 29-35 39-58 10-23 15-46 15-71z"/>
<glyph glyph-name="toggle-on" unicode="&#57407;" d="M-37 256c0 25 5 48 15 71 10 23 23 42 39 58 16 17 36 30 58 39 23 10 47 15 71 15l220 0c24 0 48-5 71-15 22-9 42-22 58-39 16-16 29-35 39-58 10-23 15-46 15-71 0-25-5-48-15-71-10-23-23-42-39-58-16-17-36-30-58-39-23-10-47-15-71-15l-220 0c-24 0-48 5-71 15-22 9-42 22-58 39-16 16-29 35-39 58-10 23-15 46-15 71z m403-146c20 0 38 4 56 11 18 8 34 18 47 32 13 13 24 28 31 46 8 18 12 37 12 57 0 20-4 39-12 57-7 18-18 33-31 46-13 14-29 24-47 32-18 7-36 11-56 11-20 0-39-4-57-11-18-8-34-18-47-32-13-13-23-28-31-46-8-18-12-37-12-57 0-20 4-39 12-57 8-18 18-33 31-46 13-14 29-24 47-32 18-7 37-11 57-11z"/>
<glyph glyph-name="pin" unicode="&#57408;" d="M256 512c-107 0-194-87-194-194 0-108 152-318 194-318 31 0 194 210 194 318 0 107-87 194-194 194z m-1-290c-54 0-99 44-99 99 0 54 45 99 99 99 55 0 99-45 99-99 0-55-44-99-99-99z"/>
<glyph glyph-name="signature" unicode="&#57409;" d="M468 449l-104-104c-11-11-20-20-27-27 6-15 4-33-8-45-15-15-40-15-56 0-15 16-15 41 0 56 12 12 30 15 45 7 7 7 15 16 27 28l104 103c15 16 11 21-8 13l-204-91c-19-8-38-33-42-54l-2-10c-4-21-13-45-20-52-8-8-2-26 13-41l45-46c15-15 34-21 41-13 8 7 31 17 52 20l11 2c21 4 45 23 54 43l90 203c9 20 4 23-11 8z m-322-201l-114-114c-24-24 76-127 101-102l114 114c0 0-28 20-54 47-27 27-47 55-47 55z"/>
<glyph glyph-name="signature-pen" unicode="&#57410;" d="M509 449l-60 60c-2 2-5 3-8 3-3 0-5-1-7-3l-9-8c-20 13-49 11-67-7l-120-121c-5-4-5-11 0-15 2-2 4-3 7-3 3 0 6 1 8 3l120 121c10 10 25 12 37 6l-308-308c-4-4-4-11 0-15l4-4c-4 1-7 1-10 1-17 0-33-7-45-19-40-39-40-116-40-119 0 0 0 0 0 0l0-11 10 0c4 0 80 1 120 41 12 12 18 28 18 45 0 3 0 6-1 9l4-3c2-2 5-4 8-4 3 0 5 2 7 4l211 211c0 0 0 0 0 0 0 0 0 0 0 0l121 120c4 5 4 11 0 16z m-383-383c-20-20-53-28-76-32l39 40c4 4 4 11 0 15-4 4-11 4-15 0l-40-40c4 24 12 57 32 76 8 8 19 13 30 13 11 0 22-5 30-13 8-8 12-18 12-29 0-12-4-22-12-30z m44 58l-46 45 197 197 45-46z m211 211l-45 46 105 105 45-45z"/>
<glyph glyph-name="calendar" unicode="&#57412;" d="M55 37l402 0 0 292-402 0z m110 347l0 82c0 3-1 5-3 7-2 2-4 2-7 2l-18 0c-3 0-5 0-6-2-2-2-3-4-3-7l0-82c0-3 1-5 3-7 1-1 3-2 6-2l18 0c3 0 5 1 7 2 2 2 3 4 3 7z m219 0l0 82c0 3-1 5-3 7-1 2-3 2-6 2l-18 0c-3 0-5 0-7-2-2-2-3-4-3-7l0-82c0-3 1-5 3-7 2-1 4-2 7-2l18 0c3 0 5 1 6 2 2 2 3 4 3 7z m110 18l0-365c0-10-4-19-11-26-7-7-16-11-26-11l-402 0c-10 0-19 4-26 11-7 7-11 16-11 26l0 365c0 10 4 19 11 26 7 7 16 11 26 11l36 0 0 27c0 13 5 24 14 33 9 9 20 13 32 13l18 0c13 0 24-4 33-13 9-9 13-20 13-33l0-27 110 0 0 27c0 13 4 24 13 33 9 9 20 13 33 13l18 0c12 0 23-4 32-13 9-9 14-20 14-33l0-27 36 0c10 0 19-4 26-11 7-7 11-16 11-26z"/>
<glyph glyph-name="edit" unicode="&#57413;" d="M424 425c11-11 19-22 24-33 5-11 8-19 8-24 0 0 0-9 0-9 0 0-129-129-129-129 0 0-149-147-149-147 0 0-122-27-122-27 0 0 26 123 26 123 0 0 148 148 148 148 0 0 129 129 129 129 19 4 40-6 65-31m-253-328c0 0 12 13 12 13 0 15-9 31-26 48-8 7-16 13-23 18-8 4-14 6-18 6 0 0-7 1-7 1 0 0-12-12-12-12 0 0-9-41-9-41 10-5 17-11 24-17 8-9 14-17 18-25 0 0 41 9 41 9"/>
<glyph glyph-name="credit-card-alt" unicode="&#57414;" d="M461 435c14 0 26-5 36-15 10-10 15-22 15-36 0 0 0-256 0-256 0-14-5-26-15-36-10-10-22-15-36-15 0 0-410 0-410 0-13 0-25 5-36 15-10 10-15 22-15 36 0 0 0 256 0 256 0 14 5 26 15 36 11 10 23 15 36 15 0 0 410 0 410 0m0-307c0 0 0 154 0 154 0 0-410 0-410 0 0 0 0-154 0-154 0 0 410 0 410 0m0 230c0 0 0 26 0 26 0 0-410 0-410 0 0 0 0-26 0-26 0 0 410 0 410 0m-359-131c0 0 16 0 16 0 0 0 0-15 0-15 0 0-16 0-16 0 0 0 0 15 0 15m93-30c0 0 15 0 15 0 0 0 0 15 0 15 0 0 15 0 15 0 0 0 0 15 0 15 0 0 31 0 31 0 0 0 0-15 0-15 0 0-15 0-15 0 0 0 0-15 0-15 0 0-16 0-16 0 0 0 0-16 0-16 0 0-30 0-30 0 0 0 0 16 0 16m61-16c0 0-15 0-15 0 0 0 0 16 0 16 0 0 15 0 15 0 0 0 0-16 0-16m-77 0c0 0-31 0-31 0 0 0 0 16 0 16 0 0 31 0 31 0 0 0 0-16 0-16m16 31c0 0 0-15 0-15 0 0-16 0-16 0 0 0 0 30 0 30 0 0 31 0 31 0 0 0 0-15 0-15 0 0-15 0-15 0m-62-15c0 0 0-16 0-16 0 0-31 0-31 0 0 0 0 16 0 16 0 0 16 0 16 0 0 0 0 15 0 15 0 0 15 0 15 0 0 0 0 15 0 15 0 0 31 0 31 0 0 0 0-15 0-15 0 0-16 0-16 0 0 0 0-15 0-15 0 0-15 0-15 0"/>
<glyph glyph-name="organization" unicode="&#57417;" d="M416 320l-320 0c-35 0-64-29-64-64l0-32c0-24 13-44 32-55l0-105 128 0 0-64 128 0 0 64 128 0 0 105c19 11 32 31 32 55l0 32c0 35-29 64-64 64z m-256-224l-64 0 0 128-32 0 0 32c0 18 14 32 32 32l41 0c-6-9-9-20-9-32l0-64c0-24 13-44 32-55z m160 64l0 64-32 0 0-192-64 0 0 192-32 0 0-64c-18 0-32 14-32 32l0 64c0 18 14 32 32 32l128 0c18 0 32-14 32-32l0-64c0-18-14-32-32-32z m128 64l-32 0 0-128-64 0 0 41c19 11 32 31 32 55l0 64c0 12-3 23-9 32l41 0c18 0 32-14 32-32z m-264 129c17-20 43-33 72-33 29 0 55 13 72 33 11-19 32-33 56-33 35 0 64 29 64 64 0 35-29 64-64 64-13 0-25-4-35-10-10 42-47 74-93 74-46 0-83-32-93-74-10 6-22 10-35 10-35 0-64-29-64-64 0-35 29-64 64-64 24 0 45 14 56 33z m200 63c18 0 32-14 32-32 0-18-14-32-32-32-18 0-32 14-32 32 0 18 14 32 32 32z m-128 64c35 0 64-29 64-64 0-35-29-64-64-64-35 0-64 29-64 64 0 35 29 64 64 64z m-128-128c-18 0-32 14-32 32 0 18 14 32 32 32 18 0 32-14 32-32 0-18-14-32-32-32z"/>
<glyph glyph-name="square-check" unicode="&#57418;" d="M85 491l342 0c17 0 32-7 45-19 12-13 19-28 19-45l0-342c0-17-7-32-19-45-13-12-28-19-45-19l-342 0c-17 0-32 7-45 19-12 13-19 28-19 45l0 342c0 17 7 32 19 45 13 12 28 19 45 19z m342-43l-342 0c-6 0-11-2-15-6-4-4-6-9-6-15l0-342c0-6 2-11 6-15 4-4 9-6 15-6l342 0c6 0 11 2 15 6 4 4 6 9 6 15l0 342c0 6-2 11-6 15-4 4-9 6-15 6z m-86-118c6 0 11-2 15-6 5-4 7-9 7-15 0-6-2-11-7-15l-105-106c-4-4-9-6-15-6-6 0-11 2-15 6l-61 60c-4 5-6 10-6 16 0 6 2 11 6 15 5 4 10 6 16 6 5 0 10-2 15-6l45-46 90 91c4 4 9 6 15 6z"/>
<glyph glyph-name="square-minus" unicode="&#57419;" d="M85 491l342 0c17 0 32-7 45-19 12-13 19-28 19-45l0-342c0-17-7-32-19-45-13-12-28-19-45-19l-342 0c-17 0-32 7-45 19-12 13-19 28-19 45l0 342c0 17 7 32 19 45 13 12 28 19 45 19z m342-43l-342 0c-6 0-11-2-15-6-4-4-6-9-6-15l0-342c0-6 2-11 6-15 4-4 9-6 15-6l342 0c6 0 11 2 15 6 4 4 6 9 6 15l0 342c0 6-2 11-6 15-4 4-9 6-15 6z m-256-171l170 0c6 0 11-2 15-6 5-4 7-9 7-15 0-6-2-11-7-15-4-4-9-6-15-6l-170 0c-6 0-11 2-15 6-5 4-7 9-7 15 0 6 2 11 7 15 4 4 9 6 15 6z"/>
<glyph glyph-name="square-plus" unicode="&#57420;" d="M85 491l342 0c17 0 32-7 45-19 12-13 19-28 19-45l0-342c0-17-7-32-19-45-13-12-28-19-45-19l-342 0c-17 0-32 7-45 19-12 13-19 28-19 45l0 342c0 17 7 32 19 45 13 12 28 19 45 19z m342-43l-342 0c-6 0-11-2-15-6-4-4-6-9-6-15l0-342c0-6 2-11 6-15 4-4 9-6 15-6l342 0c6 0 11 2 15 6 4 4 6 9 6 15l0 342c0 6-2 11-6 15-4 4-9 6-15 6z m-171-85c6 0 11-2 15-7 4-4 6-9 6-15l0-64 64 0c6 0 11-2 15-6 5-4 7-9 7-15 0-6-2-11-7-15-4-4-9-6-15-6l-64 0 0-64c0-6-2-11-6-15-4-5-9-7-15-7-6 0-11 2-15 7-4 4-6 9-6 15l0 64-64 0c-6 0-11 2-15 6-5 4-7 9-7 15 0 6 2 11 7 15 4 4 9 6 15 6l64 0 0 64c0 6 2 11 6 15 4 5 9 7 15 7z"/>
<glyph glyph-name="square-x" unicode="&#57421;" d="M85 491l342 0c17 0 32-7 45-19 12-13 19-28 19-45l0-342c0-17-7-32-19-45-13-12-28-19-45-19l-342 0c-17 0-32 7-45 19-12 13-19 28-19 45l0 342c0 17 7 32 19 45 13 12 28 19 45 19z m342-43l-342 0c-6 0-11-2-15-6-4-4-6-9-6-15l0-342c0-6 2-11 6-15 4-4 9-6 15-6l342 0c6 0 11 2 15 6 4 4 6 9 6 15l0 342c0 6-2 11-6 15-4 4-9 6-15 6z m-111-110c6 0 11-2 16-7 4-4 6-9 6-15 0-6-2-11-6-15l-46-45 46-45c4-4 6-9 6-15 0-6-2-11-6-15-5-5-10-7-16-7-6 0-11 2-15 6l-45 46-45-46c-4-4-9-6-15-6-6 0-12 2-16 6-4 4-6 10-6 16 0 6 2 11 7 15l45 45-45 45c-5 4-7 9-7 15 0 6 2 11 7 15 4 5 9 7 15 7 6 0 11-2 15-7l45-45 45 45c5 5 10 7 15 7z"/>
<glyph glyph-name="tag" unicode="&#57422;" d="M21 491l242 0 209-210c12-12 19-27 19-45 0-17-7-33-19-45l-151-151c-12-12-27-19-45-19-18 0-33 7-45 19l-210 209z m421-240l-197 197-181 0 0-181 197-197c4-4 9-6 15-6 6 0 11 2 15 6l151 151c4 4 6 9 6 15 0 6-2 11-6 15z m-261 133c15 0 28-5 38-16 10-10 16-23 16-37 0-15-6-28-16-38-10-10-23-16-38-16-14 0-27 6-37 16-11 10-16 23-16 38 0 14 5 27 16 37 10 11 23 16 37 16z m0-43c-3 0-5-1-7-3-2-2-3-4-3-7 0-3 1-6 3-8 2-2 4-3 7-3 3 0 6 1 8 3 2 2 3 5 3 8 0 3-1 5-3 7-2 2-5 3-8 3z"/>
<glyph glyph-name="x" unicode="&#57423;" d="M405 427c6 0 12-2 16-6 4-4 6-10 6-16 0-6-2-11-6-15l-135-134 135-134c4-4 6-9 6-15 0-6-2-12-6-16-4-4-10-6-16-6-6 0-11 2-15 6l-134 135-134-135c-4-4-9-6-15-6-6 0-12 2-16 6-4 4-6 10-6 16 0 6 2 11 7 15l134 134-134 134c-5 4-7 9-7 15 0 6 2 12 6 16 4 4 10 6 16 6 6 0 11-2 15-7l134-134 134 134c4 5 9 7 15 7z"/>
<glyph glyph-name="check" unicode="&#57424;" d="M448 405c6 0 11-2 15-6 4-4 6-9 6-15 0-6-2-11-6-15l-256-256c-4-4-9-6-15-6-6 0-11 2-15 6l-128 128c-4 4-6 9-6 15 0 6 2 11 6 15 4 4 9 6 15 6 6 0 11-2 15-6l113-113 241 241c4 4 9 6 15 6z"/>
<glyph glyph-name="minus" unicode="&#57425;" d="M64 277l384 0c6 0 11-2 15-6 4-4 6-9 6-15 0-6-2-11-6-15-4-4-9-6-15-6l-384 0c-6 0-11 2-15 6-4 4-6 9-6 15 0 6 2 11 6 15 4 4 9 6 15 6z"/>
<glyph glyph-name="plus" unicode="&#57426;" d="M256 469c6 0 11-2 15-6 4-4 6-9 6-15l0-171 171 0c6 0 11-2 15-6 4-4 6-9 6-15 0-6-2-11-6-15-4-4-9-6-15-6l-171 0 0-171c0-6-2-11-6-15-4-4-9-6-15-6-6 0-11 2-15 6-4 4-6 9-6 15l0 171-171 0c-6 0-11 2-15 6-4 4-6 9-6 15 0 6 2 11 6 15 4 4 9 6 15 6l171 0 0 171c0 6 2 11 6 15 4 4 9 6 15 6z"/>
<glyph glyph-name="menu" unicode="&#57427;" d="M427 320c17 0 32-6 45-19 12-12 19-27 19-45 0-18-7-33-19-45-13-13-28-19-45-19-18 0-33 6-46 19-12 12-18 27-18 45 0 18 6 33 18 45 13 13 28 19 46 19z m-342 0c18 0 33-6 46-19 12-12 18-27 18-45 0-18-6-33-18-45-13-13-28-19-46-19-17 0-32 6-45 19-12 12-19 27-19 45 0 18 7 33 19 45 13 13 28 19 45 19z m0-43c-6 0-11-2-15-6-4-4-6-9-6-15 0-6 2-11 6-15 4-4 9-6 15-6 6 0 11 2 15 6 5 4 7 9 7 15 0 6-2 11-7 15-4 4-9 6-15 6z m171 43c18 0 33-6 45-19 13-12 19-27 19-45 0-18-6-33-19-45-12-13-27-19-45-19-18 0-33 6-45 19-13 12-19 27-19 45 0 18 6 33 19 45 12 13 27 19 45 19z m0-43c-6 0-11-2-15-6-4-4-6-9-6-15 0-6 2-11 6-15 4-4 9-6 15-6 6 0 11 2 15 6 4 4 6 9 6 15 0 6-2 11-6 15-4 4-9 6-15 6z m171 0c-6 0-11-2-15-6-5-4-7-9-7-15 0-6 2-11 7-15 4-4 9-6 15-6 6 0 11 2 15 6 4 4 6 9 6 15 0 6-2 11-6 15-4 4-9 6-15 6z"/>
<glyph glyph-name="feather-webfont-10" unicode="&#57428;" d="M377 469c23 0 44-5 64-17 20-11 35-27 47-46 11-20 17-41 17-65 0-16-4-33-10-48-6-16-16-30-28-42l-211-211-211 211c-12 12-22 26-28 42-6 15-10 32-10 48 0 24 6 45 18 65 11 19 26 35 46 46 20 12 41 17 64 17 17 0 33-3 49-9 16-7 30-16 42-28l30-30 30 30c12 12 26 21 42 28 16 6 32 9 49 9z m0-42c-11 0-22-2-33-7-10-4-19-10-28-18l-60-61-60 61c-9 8-18 14-28 18-11 5-22 7-33 7-15 0-30-4-43-12-13-7-23-18-31-31-7-13-11-27-11-43 0-11 2-22 6-32 5-10 11-20 19-28l181-181 181 181c8 8 14 18 19 28 4 10 6 21 6 32 0 16-4 30-11 43-8 13-18 24-31 31-13 8-28 12-43 12z"/>
<glyph glyph-name="feather-webfont-11" unicode="&#57429;" d="M256 491c18 0 33-7 45-19 13-13 19-28 19-45l0-342c0-17-6-32-19-45-12-12-27-19-45-19-18 0-33 7-45 19-13 13-19 28-19 45l0 342c0 17 6 32 19 45 12 12 27 19 45 19z m-171-256c18 0 33-7 46-19 12-13 18-28 18-45l0-86c0-17-6-32-18-45-13-12-28-19-46-19-17 0-32 7-45 19-12 13-19 28-19 45l0 86c0 17 7 32 19 45 13 12 28 19 45 19z m0-43c-6 0-11-2-15-6-4-4-6-9-6-15l0-86c0-6 2-11 6-15 4-4 9-6 15-6 6 0 11 2 15 6 5 4 7 9 7 15l0 86c0 6-2 11-7 15-4 4-9 6-15 6z m171 256c-6 0-11-2-15-6-4-4-6-9-6-15l0-342c0-6 2-11 6-15 4-4 9-6 15-6 6 0 11 2 15 6 4 4 6 9 6 15l0 342c0 6-2 11-6 15-4 4-9 6-15 6z m171-85c17 0 32-7 45-19 12-13 19-28 19-45l0-214c0-17-7-32-19-45-13-12-28-19-45-19-18 0-33 7-46 19-12 13-18 28-18 45l0 214c0 17 6 32 18 45 13 12 28 19 46 19z m0-43c-6 0-11-2-15-6-5-4-7-9-7-15l0-214c0-6 2-11 7-15 4-4 9-6 15-6 6 0 11 2 15 6 4 4 6 9 6 15l0 214c0 6-2 11-6 15-4 4-9 6-15 6z"/>
<glyph glyph-name="circle" unicode="&#57430;" d="M256 491c-130 0-235-105-235-235 0-130 105-235 235-235 130 0 235 105 235 235 0 130-105 235-235 235z m0-427c-106 0-192 86-192 192 0 106 86 192 192 192 106 0 192-86 192-192 0-106-86-192-192-192z"/>
<glyph glyph-name="square" unicode="&#57431;" d="M427 491l-342 0c-35 0-64-29-64-64l0-342c0-35 29-64 64-64l342 0c35 0 64 29 64 64l0 342c0 35-29 64-64 64z m21-406c0-11-10-21-21-21l-342 0c-11 0-21 10-21 21l0 342c0 11 10 21 21 21l342 0c11 0 21-10 21-21z"/>
<glyph glyph-name="cloud-download" unicode="&#57411;" d="M416 352c-4 0-9-1-13-1-24 57-81 97-147 97-66 0-123-40-147-97-4 0-9 1-13 1-53 0-96-43-96-96 0-53 43-96 96-96 10 0 20 2 29 5 17-19 41-31 67-35l0 32c-25 6-46 22-56 44-11-9-25-14-40-14-35 0-64 29-64 64 0 35 29 64 64 64 13 0 24-4 34-10 11 60 63 106 126 106 63 0 115-46 125-106 10 6 22 10 35 10 35 0 64-29 64-64 0-35-29-64-64-64-5 0-10 1-15 2-14-21-38-34-65-34-6 0-11 1-16 2l0-32c5-1 11-2 16-2 31 0 58 12 78 32 1 0 1 0 2 0 53 0 96 43 96 96 0 53-43 96-96 96z m-128-96l-64 0 0-160-64 0 96-96 96 96-64 0z"/>
<glyph glyph-name="cloud-upload" unicode="&#57415;" d="M256 320l-96-96 64 0 0-160 64 0 0 160 64 0z m160 32c-4 0-9-1-13-1-24 57-81 97-147 97-66 0-123-40-147-97-4 0-9 1-13 1-53 0-96-43-96-96 0-53 43-96 96-96 10 0 20 2 29 5 17-19 41-31 67-35l0 32c-25 6-46 22-56 44-11-9-25-14-40-14-35 0-64 29-64 64 0 35 29 64 64 64 13 0 24-4 34-10 11 60 63 106 126 106 63 0 115-46 125-106 10 6 22 10 35 10 35 0 64-29 64-64 0-35-29-64-64-64-5 0-10 1-15 2-14-21-38-34-65-34-6 0-11 1-16 2l0-32c5-1 11-2 16-2 31 0 58 12 79 32 0 0 0 0 1 0 53 0 96 43 96 96 0 53-43 96-96 96z"/>
<glyph glyph-name="feather-webfont" unicode="&#57372;" d="M384 469c24 0 44-8 60-25 17-16 25-36 25-60 0-24-8-44-25-60-16-17-36-25-60-25-13 0-24 2-36 7-11 6-20 13-28 22l-108-54c1-6 1-12 1-18 0-6 0-12-1-18l108-54c8 9 17 16 28 22 12 5 23 7 36 7 24 0 44-8 60-25 17-16 25-36 25-60 0-24-8-44-25-60-16-17-36-25-60-25-24 0-44 8-60 25-17 16-25 36-25 60 0 6 0 12 2 18l-109 54c-8-9-17-16-28-22-12-5-23-7-36-7-24 0-44 8-60 25-17 16-25 36-25 60 0 24 8 44 25 60 16 17 36 25 60 25 13 0 24-2 36-7 11-6 20-13 28-22l109 54c-2 6-2 12-2 18 0 24 8 44 25 60 16 17 36 25 60 25z m-256-170c-12 0-22-5-30-13-8-8-13-18-13-30 0-12 5-22 13-30 8-9 18-13 30-13 12 0 22 4 30 13 9 8 13 18 13 30 0 12-4 22-13 30-8 8-18 13-30 13z m256-128c-12 0-22-5-30-13-8-8-13-18-13-30 0-12 5-22 13-30 8-9 18-13 30-13 12 0 22 4 30 13 9 8 13 18 13 30 0 12-4 22-13 30-8 8-18 13-30 13z m0 256c-12 0-22-5-30-13-8-8-13-18-13-30 0-12 5-22 13-30 8-9 18-13 30-13 12 0 22 4 30 13 9 8 13 18 13 30 0 12-4 22-13 30-8 8-18 13-30 13z"/>
<glyph glyph-name="radio-checked" unicode="&#57392;" d="M256 491c32 0 62-7 91-19 29-12 54-29 75-50 21-21 38-46 50-75 12-29 19-59 19-91 0-32-7-62-19-91-12-29-29-54-50-75-21-21-46-38-75-50-29-12-59-19-91-19-32 0-62 7-91 19-29 12-54 29-75 50-21 21-38 46-50 75-12 29-19 59-19 91 0 32 7 62 19 91 12 29 29 54 50 75 21 21 46 38 75 50 29 12 59 19 91 19z m0-43c-26 0-51-5-75-15-23-10-44-24-61-41-17-17-31-38-41-61-10-24-15-49-15-75 0-26 5-51 15-75 10-23 24-44 41-61 17-17 38-31 61-41 24-10 49-15 75-15 26 0 51 5 75 15 23 10 44 24 61 41 17 17 31 38 41 61 10 24 15 49 15 75 0 26-5 51-15 75-10 23-24 44-41 61-17 17-38 31-61 41-24 10-49 15-75 15z m0-107c24 0 44-8 60-25 17-16 25-36 25-60 0-24-8-44-25-60-16-17-36-25-60-25-24 0-44 8-60 25-17 16-25 36-25 60 0 24 8 44 25 60 16 17 36 25 60 25z m0-42c-12 0-22-5-30-13-8-8-13-18-13-30 0-12 5-22 13-30 8-9 18-13 30-13 12 0 22 4 30 13 9 8 13 18 13 30 0 12-4 22-13 30-8 8-18 13-30 13z"/>
<glyph glyph-name="external-link" unicode="&#57416;" d="M85 491l150 0c6 0 11-2 15-7 4-4 6-9 6-15 0-6-2-11-6-15-4-4-9-6-15-6l-150 0c-6 0-11-2-15-6-4-4-6-9-6-15l0-342c0-6 2-11 6-15 4-4 9-6 15-6l342 0c6 0 11 2 15 6 4 4 6 9 6 15l0 150c0 6 2 11 6 15 4 4 9 6 15 6 6 0 11-2 15-6 5-4 7-9 7-15l0-150c0-17-7-32-19-45-13-12-28-19-45-19l-342 0c-17 0-32 7-45 19-12 13-19 28-19 45l0 342c0 17 7 32 19 45 13 12 28 19 45 19z m256 0l128 0c6 0 11-2 15-7 5-4 7-9 7-15l0-128c0-6-2-11-7-15-4-4-9-6-15-6-6 0-11 2-15 6-4 4-6 9-6 15l0 77-177-177c-4-4-9-6-15-6-6 0-11 2-15 6-4 4-6 9-6 15 0 6 2 11 6 15l177 177-77 0c-6 0-11 2-15 6-4 4-6 9-6 15 0 6 2 11 6 15 4 5 9 7 15 7z"/>
<glyph glyph-name="draggable" unicode="&#57432;" d="M430 512l-326 0c-22 0-40-18-40-40 0-22 18-40 40-40l326 0 0 80z m0-441l-326 0c-22 0-40-18-40-40 0-22 18-40 40-40l326 0 0 80z m0 221l-326 0c-22 0-40-18-40-40 0-22 18-40 40-40l326 0 0 80z"/>
<glyph glyph-name="home-alt" unicode="&#57433;" d="M421 229l0-138c0-5-2-9-6-12-3-4-8-6-13-6l-109 0 0 110-74 0 0-110-109 0c-5 0-10 2-13 6-4 3-6 7-6 12l0 138c0 0 0 0 0 0 0 1 0 1 0 1l164 136 165-136c0 0 0-1 0-1z m63 19l-17-21c-2-2-4-3-6-3l-1 0c-3 0-5 1-6 2l-198 165-198-165c-2-2-4-2-7-2-2 0-4 1-6 3l-17 21c-2 2-2 4-2 7 0 3 1 5 3 6l205 171c6 5 14 8 22 8 8 0 16-3 22-8l69-58 0 56c0 2 1 5 3 6 2 2 4 3 7 3l54 0c3 0 5-1 7-3 2-1 3-4 3-6l0-117 62-52c2-1 3-3 3-6 0-3 0-5-2-7z"/>
<glyph glyph-name="circle-announcement" unicode="&#57434;" d="M253 506c-139 0-253-113-253-253 0-139 114-253 253-253 140 0 253 114 253 253 0 140-113 253-253 253z m0-488c-129 0-235 106-235 235 0 130 106 235 235 235 130 0 235-105 235-235 0-129-105-235-235-235z m103 307c-35 74-38 73-45 70-1 0-1-1-2-1-48-48-67-69-75-79-3 1-8 1-11-1l-80-38c-6-3-10-9-10-15l-3-2c-6-3-8-8-9-14-1-2-1-3 0-5l22-46c1-2 2-3 3-3 3-1 7-3 11-3 2 0 4 0 6 1l4 2c2-3 6-4 10-4 3 0 5 0 8 1l3 2 33-70c2-3 5-6 8-8 2-1 4-1 6-1 2 0 4 0 5 1l36 17c7 4 10 13 6 20 0 1 0 1-1 1l-15 21-16 29-3 18 17 8c4 2 7 5 8 8 2 0 3 0 5 0 15 0 43 3 103 11 1 0 1 0 2 1 7 3 10 4-26 79z m-113-16c0 0 0 0 0 0l0 0c0 0 0 0 0 0z m-89-107l-20 42c1 3 2 3 2 3l2 1 22-46-2-1c-1 0-1 0-4 1z m83-6c1 0 1-1 1-2l17-31 15-20c0-1 0-2 0-2l-35-17c0 0-1 1-2 2l-33 70 35 16z m22 42l-80-37c-1-1-3-1-3 0l-29 60c0 0 0 2 2 3l79 38c1 0 2 0 2 0 1 0 2 0 2 0l29-62c-1 0-1-1-2-2z m14 7c1 0 1 0 1 0l0-1c0 1 0 1-1 1z m0 2l-29 60c7 9 39 42 69 72 13-21 51-99 58-122-42-5-87-10-98-10z"/>
<glyph glyph-name="circle-add" unicode="&#57435;" d="M253 512c-139 0-253-114-253-253 0-140 114-253 253-253 140 0 253 113 253 253 0 139-113 253-253 253z m0-488c-129 0-235 105-235 235 0 129 106 235 235 235 130 0 235-106 235-235 0-130-105-235-235-235z m103 244l-94 0 0 94c0 5-4 9-9 9-5 0-9-4-9-9l0-94-94 0c-5 0-9-4-9-9 0-5 4-9 9-9l94 0 0-94c0-5 4-9 9-9 5 0 9 4 9 9l0 94 94 0c5 0 9 4 9 9 0 5-4 9-9 9z"/>
<glyph glyph-name="circle-unit" unicode="&#57437;" d="M237 253c0-6-5-10-11-10-6 0-11 4-11 10 0 6 5 11 11 11 6 0 11-5 11-11z m118 139l-159 22c-2 0-5-1-7-2-1-2-2-4-2-6l0-14-32 0c-5 0-9-4-9-8l0-259c0-5 4-9 9-9 5 0 9 4 9 9l0 250 23 0 0-264c0-2 1-4 2-6 2-1 4-2 6-2l160 9c4 0 7 4 7 8l0 264c0 4-3 7-7 8z m-9-264l0 0-143-8 0 276 143-20z m-93-122c140 0 253 113 253 253 0 139-113 253-253 253-139 0-253-114-253-253 0-140 114-253 253-253z m0 488c130 0 235-106 235-235 0-130-105-235-235-235-129 0-235 105-235 235 0 129 106 235 235 235z"/>
<glyph glyph-name="close" unicode="&#57445;" d="M494 58l-203 203 203 203c11 11 11 29 0 40-11 11-29 11-40 0l-203-203-203 203c-11 11-29 11-40 0-11-11-11-29 0-40l203-203-203-203c-11-11-11-29 0-40 11-11 29-11 40 0l203 203 203-203c11-11 29-11 40 0 11 11 11 29 0 40z"/>
<glyph glyph-name="circle-bubble" unicode="&#57447;" d="M253 506c-139 0-253-113-253-253 0-139 114-253 253-253 140 0 253 114 253 253 0 140-113 253-253 253z m0-488c-129 0-235 106-235 235 0 130 106 235 235 235 130 0 235-105 235-235 0-129-105-235-235-235z m7 348c29-1 63-9 92-31 19-14 34-31 40-55 7-30-1-56-21-79-21-23-48-36-78-43-22-5-43-6-65-2-1 0-3-1-4-2-13-14-28-26-47-33-4-1-9-2-13-2-7-1-10 6-7 11 5 8 9 17 13 25 2 4 2 9 4 13 0 3-1 4-3 6-16 8-30 19-40 33-26 33-25 76 2 109 20 22 44 36 73 44 15 4 31 6 54 6z m-73-221c1 1 2 1 3 3 8 6 15 12 22 18 5 5 10 8 18 7 23-4 46-2 68 4 24 7 45 18 61 37 23 27 24 61 2 89-10 12-21 21-35 28-40 20-81 22-123 10-22-7-42-19-58-38-19-23-21-53-5-78 9-16 23-27 40-36 8-4 12-11 11-21-1-7-3-15-4-23z m-31 117c1 13 7 23 17 32 16 14 35 22 56 25 7 2 14 2 22 2 4 1 6-1 6-4 0-3-2-4-6-4-21-1-41-5-59-16-10-6-18-12-23-23-2-4-3-8-4-13-1-4-2-6-5-5-3 0-4 2-4 6z"/>
<glyph glyph-name="circle-payment" unicode="&#57448;" d="M253 512c-139 0-253-114-253-253 0-140 114-253 253-253 140 0 253 113 253 253 0 139-113 253-253 253z m0-488c-129 0-235 105-235 235 0 129 106 235 235 235 130 0 235-106 235-235 0-130-105-235-235-235z m8 249c-13 4-22 9-27 14-5 5-7 11-7 19 0 9 2 16 7 21 5 5 12 8 22 8 9 0 16-4 21-10 5-7 8-15 8-26l24 0c0 16-4 29-11 38-8 10-19 15-32 17l0 28-20 0 0-28c-14-1-24-6-32-15-8-9-12-20-12-33 0-14 4-25 13-34 8-8 21-15 38-20 12-4 20-9 26-14 5-5 7-11 7-19 0-9-3-16-9-21-6-5-14-8-24-8-10 0-17 3-24 9-6 5-10 14-10 27l-23 0 0-1c-1-17 4-30 13-39 9-9 21-14 35-15l0-24 19 0 0 24c15 1 26 6 35 15 8 8 13 19 13 33 0 14-4 25-13 33-8 8-20 15-37 21z"/>
<glyph glyph-name="circle-calendar" unicode="&#57449;" d="M253 506c-139 0-253-113-253-253 0-139 114-253 253-253 140 0 253 114 253 253 0 140-113 253-253 253z m0-488c-129 0-235 106-235 235 0 130 106 235 235 235 130 0 235-105 235-235 0-129-105-235-235-235z m-25 317c17 0 33 0 50 0 0 4 0 8 0 12 0 13 9 21 21 21 4 0 8 0 12 0 10-2 17-11 17-20 0-4 0-8 0-13 5 0 10 0 14 0 4 0 8 0 12-3 4-3 7-8 7-14 0-54 0-109 0-164 0-5-2-9-6-12-2-3-5-4-8-4-62 0-124 0-186 0-8 0-15 7-15 15 0 1 0 1 0 2 0 54 0 108 0 162 0 11 7 18 18 18 5 0 9 0 15 0 0 4 0 8 0 12 0 12 9 21 21 21 4 0 8 0 11 0 10-2 17-9 17-20 0-4 0-8 0-13z m116-43c-61 0-121 0-182 0 0-1 0-9 0-10 0-42 0-83 0-125 0-3 1-3 4-3 58 0 116 0 174 0 1 0 3 0 4 0 0 44 0 94 0 138z m-50 37c0-6 0-12 0-18 0-3 1-4 5-5 3 0 5 0 8 0 3 0 4 2 4 4 0 13 0 25 0 38 0 2-2 4-4 4-3 0-5 0-8 0-3 0-5-2-5-5 0-6 0-12 0-18z m-82 0c0 6 0 12 0 18 0 3-1 5-4 5-2 0-5 0-7 0-5 0-6-1-6-7 0-8 0-17 0-26 0-3 0-5 0-8 0-3 2-5 4-5 3 0 6 0 9 0 3 1 4 2 4 5 0 6 0 12 0 18z"/>
<glyph glyph-name="circle-close" unicode="&#57452;" d="M76 436c-101-101-101-265 0-366 101-101 265-101 366 0 101 101 101 265 0 366-101 101-265 101-366 0z m352-352c-93-94-245-94-339 0-94 93-94 245 0 339 94 94 246 94 339 0 94-94 94-246 0-339z m-240 87c-3 0-6 1-8 3-5 5-5 12 0 16l142 142c4 5 11 5 16 0 4-4 4-11 0-16l-142-142c-3-2-5-3-8-3z m142 0c-3 0-6 1-8 3l-142 142c-5 5-5 12 0 16 4 5 11 5 16 0l142-142c4-4 4-11 0-16-2-2-5-3-8-3z"/>
<glyph glyph-name="circle-cloud" unicode="&#57453;" d="M253 506c-139 0-253-113-253-253 0-139 114-253 253-253 140 0 253 114 253 253 0 140-113 253-253 253z m0-488c-129 0-235 106-235 235 0 130 106 235 235 235 130 0 235-105 235-235 0-129-105-235-235-235z m128 268c-8 31-36 54-68 54-9 0-19-2-27-6-16 26-44 42-75 42-48 0-87-39-87-88 0-1 0-2 0-3-22-10-36-32-36-57 0-34 28-63 63-63l204 0c35 0 64 29 64 63 0 26-15 48-38 58z m-26-103l-204 0c-25 0-45 20-45 45 0 21 14 40 35 44 1 1 2 2 2 4-1 4-1 8-1 12 0 39 31 70 69 70 29 0 56-19 65-47 1 0 1-1 2-1 1-1 2 0 3 0 9 8 21 12 32 12 27 0 49-21 51-47 0-2 1-3 3-3 20-5 34-23 34-44 0-25-21-45-46-45z"/>
<glyph glyph-name="circle-edit" unicode="&#57455;" d="M253 506c-139 0-253-113-253-253 0-139 114-253 253-253 140 0 253 114 253 253 0 140-113 253-253 253z m0-488c-129 0-235 106-235 235 0 130 106 235 235 235 130 0 235-105 235-235 0-129-105-235-235-235z m-98 110c-19-3-32 18-27 35 7 22 13 44 19 66 2 6 5 12 10 16 21 21 42 42 63 63 17 18 35 35 52 53 18 19 43 23 67 11 22-10 36-28 39-52 3-17-2-33-14-45-23-23-46-46-69-70-16-16-33-33-50-50-4-5-9-7-15-9-22-6-43-12-64-17-4-1-8-1-11-1z m42 25c10 3 19 5 28 8 2 0 5 2 6 4 6 8 8 18 6 28-3 19-14 32-32 40-12 6-24 6-36 0-4-2-6-4-7-8-2-9-5-17-7-26 0 0 0-1-1-2 23-1 43-22 43-44z m47 66c1 1 2 2 3 3 13 13 25 26 38 39 11 10 21 21 32 31 1 2 1 4 0 6-5 9-12 15-22 20-2 2-3 1-5-1-23-22-46-45-68-68-2-1-3-3-5-5 12-5 20-14 27-25z m96 53c7 8 15 14 19 23 4 7 6 14 4 22-4 22-16 36-37 44-16 5-30 3-42-10-3-3-6-6-9-9 0 0-1-1-1-2 39-2 66-35 66-68z m-19 15c0-1-1-2-2-3-14-14-28-28-42-43-9-9-18-18-28-27-1-2-1-3 0-4 1-6 3-12 4-17 0-2 0-5 1-6 19 19 39 39 59 58 11 12 14 26 8 42z m-37 36c-14 2-27 1-37-10-16-15-31-31-47-47-4-4-8-8-13-13 2 0 3 0 3 0 6-1 11-2 17-4 2 0 4 0 5 2 23 23 47 46 70 69 0 1 1 2 2 3z m-95-169c0 18-17 34-34 35-3 0-4-1-4-3-2-9-5-19-8-29-2-8 6-16 15-14 9 2 19 5 28 8 3 0 4 1 3 3z"/>
<glyph glyph-name="circle-form" unicode="&#57456;" d="M253 506c-139 0-253-113-253-253 0-139 114-253 253-253 140 0 253 114 253 253 0 140-113 253-253 253z m0-488c-129 0-235 106-235 235 0 130 106 235 235 235 130 0 235-105 235-235 0-129-105-235-235-235z m72 108l-144 0c-18 0-33 14-33 32l0 190c0 18 15 33 33 33l144 0c18 0 33-15 33-33l0-190c0-18-15-32-33-32z m-144 233c-6 0-10-5-10-11l0-190c0-5 4-10 10-10l144 0c6 0 11 5 11 10l0 190c0 6-5 11-11 11z m115-72l-86 0c-4 0-8 3-8 8 0 4 4 8 8 8l86 0c5 0 8-4 8-8 0-5-3-8-8-8z m0-42l-86 0c-4 0-8 4-8 8 0 5 4 8 8 8l86 0c5 0 8-3 8-8 0-4-3-8-8-8z m0-41l-86 0c-4 0-8 3-8 8 0 4 4 8 8 8l86 0c5 0 8-4 8-8 0-5-3-8-8-8z"/>
<glyph glyph-name="circle-home" unicode="&#57457;" d="M253 512c-139 0-253-114-253-253 0-140 114-253 253-253 140 0 253 113 253 253 0 139-113 253-253 253z m0-488c-129 0-235 105-235 235 0 129 106 235 235 235 130 0 235-106 235-235 0-130-105-235-235-235z m109 247c-2 0-5 1-7 2l-109 80-94-79c-5-4-12-4-16 1-3 5-3 11 2 15l100 85c4 3 10 3 14 0l116-84c5-4 6-11 3-15-3-3-6-5-9-5z m-29-108l-159 0c-6 0-11 4-11 10l0 93c0 6 5 11 11 11 6 0 11-5 11-11l0-82 137 0 0 82c0 6 5 11 11 11 6 0 11-5 11-11l0-93c0-6-5-10-11-10z"/>
<glyph glyph-name="circle-inbox" unicode="&#57459;" d="M253 506c-139 0-253-113-253-253 0-139 114-253 253-253 140 0 253 114 253 253 0 140-113 253-253 253z m0-488c-129 0-235 106-235 235 0 130 106 235 235 235 130 0 235-105 235-235 0-129-105-235-235-235z m98 138c-13 0-27 0-40 0l-58 0-58 0c-13 0-26 0-39 0-16 0-27 10-31 21-1 3-2 8-2 13 0 31 0 62 0 93 0 1 1 3 2 4 21 21 41 41 61 61 1 1 3 2 5 2 21 0 41 0 62 0 21 0 42 0 63 0 1 0 3-1 4-2 12-11 23-23 35-34l26-26c1-2 2-3 2-5l0-24c0-23 0-47 0-71 0-8-3-16-9-22-6-6-14-10-23-10l0 0z m-203 109c-1 0-3 0-4-1-1-1-1-2-1-4 0-16 0-32 0-48l0-22c0-10 4-14 14-14l192 0c10 0 15 4 15 15l0 73-1 1c-1 0-2 0-2 0l-22 0c-8 0-15 0-23 0-1 0-3-2-3-3-2-2-3-4-4-6-3-4-5-8-8-11-13-15-29-23-46-23-2 0-3 0-5 0-26 2-45 15-56 40-2 2-3 3-6 3-7 0-14 0-21 0-6 0-12 0-19 0z m60 20c1-11 5-21 13-30 8-8 18-13 30-14 1 0 2 0 3 0 8 0 16 3 23 7 13 9 20 22 21 37l57 0-1 2c0 1-1 1-1 1l-6 7c-12 11-23 23-35 34-1 1-3 2-4 2l-53 0c-18 0-37 0-55 0-2 0-4-1-6-2-11-12-23-23-34-34l-5-5c-1-1-3-3-3-3l-2-2 58 0z"/>
<glyph glyph-name="circle-lead" unicode="&#57460;" d="M336 303c1-15-13-44-25-51-1 0-1 0-1-1-1 0-2 0-3 0-1 0-3 0-4 0-3-2-7-3-10-5-3-1-3-3-2-6 0-1 0-2 1-2 1-2 3-3 5-2 6 3 11 5 17 8 13 7 28 36 30 51 1 3 0 7 0 10z m10 23c0 6-3 11-7 11-3 0-6-5-6-11l0-16c0-6 3-11 6-11 4 0 7 5 7 11z m-93 180c-139 0-253-113-253-253 0-139 114-253 253-253 140 0 253 114 253 253 0 140-113 253-253 253z m0-488c-129 0-235 106-235 235 0 130 106 235 235 235 130 0 235-105 235-235 0-129-105-235-235-235z m0 231c38 0 69 31 69 69 0 38-31 68-69 68-38 0-68-30-68-68 0-38 30-69 68-69z m0 119c28 0 50-23 50-50 0-28-22-50-50-50-27 0-50 22-50 50 0 27 23 50 50 50z m0-133c-57 0-103-47-103-106 0-5 4-9 10-9 5 0 9 4 9 9 0 49 38 88 84 88 47 0 85-39 85-88 0-5 4-9 9-9 5 0 9 4 9 9 0 59-46 106-103 106z"/>
<glyph glyph-name="circle-menu" unicode="&#57461;" d="M253 506c-139 0-253-113-253-253 0-139 114-253 253-253 140 0 253 114 253 253 0 140-113 253-253 253z m0-488c-129 0-235 106-235 235 0 130 106 235 235 235 130 0 235-105 235-235 0-129-105-235-235-235z m1 320c35 0 71 0 107 0 9 0 14-6 13-14-1-5-5-9-10-10-1 0-2 0-3 0-72 0-144 0-216 0-9 0-14 6-12 14 0 5 4 9 9 9 2 1 3 1 5 1 35 0 71 0 107 0z m-1-96c-36 0-72 0-108 0-9 0-14 5-12 13 0 5 4 9 9 10 1 0 3 0 4 0 72 0 143 0 215 0 9 0 14-7 13-14-1-5-5-9-10-9-1-1-3 0-5 0-35 0-71 0-106 0z m1-50c35 0 71 0 107 0 9 0 14-6 13-14-1-5-5-8-10-9-1 0-2 0-3 0-72 0-144 0-216 0-9 0-14 5-12 14 0 5 4 8 9 9 2 0 3 0 5 0 35 0 71 0 107 0z"/>
<glyph glyph-name="circle-minus" unicode="&#57462;" d="M253 506c-139 0-253-113-253-253 0-139 114-253 253-253 140 0 253 114 253 253 0 140-113 253-253 253z m0-488c-129 0-235 106-235 235 0 130 106 235 235 235 130 0 235-105 235-235 0-129-105-235-235-235z m99 224l-197 0c-6 0-11 5-11 11 0 6 5 11 11 11l197 0c6 0 11-5 11-11 0-6-5-11-11-11z"/>
<glyph glyph-name="circle-layout" unicode="&#57438;" d="M76 436c-101-101-101-265 0-366 101-101 265-101 366 0 101 101 101 265 0 366-101 101-265 101-366 0z m352-352c-93-94-245-94-339 0-94 93-94 245 0 339 94 94 246 94 339 0 94-94 94-246 0-339z m-86 284l-167 0c-17 0-31-14-31-31l0-167c0-18 14-32 31-32l167 0c18 0 32 14 32 32l0 167c0 17-14 31-32 31z m-167-21l167 0c6 0 11-4 11-10l0-31-188 0 0 31c0 6 4 10 10 10z m-10-177l0 115 52 0 0-126-42 0c-6 0-10 5-10 11z m177-11l-104 0 0 126 115 0 0-115c0-6-5-11-11-11z"/>
<glyph glyph-name="circle-launchlab" unicode="&#57436;" d="M357 270l0 0c63 63 57 136 57 137 0 3-3 6-6 7-1 0-1 0-1 0-1 1-77 4-140-59l-1-1c-25-25-50-54-71-81-18 4-35 1-50-8-36-22-47-74-47-76 0 0 0 0 0 0 0 0 0 0 0-1 0 0 0 0 0 0 0-1 0-1 0-1 0 0 0-1 0-1 0 0 0 0 0 0 0 0 0 0 0-1 0 0 0 0 0 0 0 0 0-1 1-1 0 0 0 0 0-1 0 0 0 0 0 0 1 0 1 0 1-1 0 0 0 0 0 0 1 0 1 0 1 0 0-1 0-1 1-1 0 0 0 0 0 0 1 0 1 0 1 0 0 0 0-1 1-1 0 0 0 0 0 0 0 0 0 0 1 0 0 0 0 0 0 0 0 0 1 0 1 0 0 0 0 0 1 0 0 1 0 1 0 1l39 9 45-44-10-39c0 0 0 0 0 0 0-1 0-1 0-1-1 0-1-1-1-1 0 0 0 0 0-1 1 0 1 0 1 0 0 0 0-1 0-1 0 0 0 0 0 0 0 0 0-1 0-1 0 0 0 0 0 0 0-1 1-1 1-1 0 0 0 0 0-1 0 0 0 0 1 0 0 0 0-1 0-1 0 0 0 0 1 0 0 0 0 0 0-1 0 0 1 0 1 0 0 0 0 0 1 0 0 0 0 0 0 0 0 0 0 0 0 0 0 0 1 0 1 0 0 0 0-1 1-1 0 0 0 0 0 0 0 0 1 1 1 1 0 0 0 0 0 0 2 0 40 8 65 33 4 4 8 9 11 14 10 15 12 33 8 51 28 22 59 49 84 74z m-213-65l-28-7c5 15 16 41 37 54 9 6 20 8 31 8-20-27-35-48-40-55z m108-52c-12-21-38-32-54-37l8 30c0 0 0 0 0 0 9 6 29 21 54 40 1-12-2-23-8-33z m-54 6l-40 41c7 9 24 32 45 59 0 0 0 0 0 1 1 0 1 1 2 1 21 27 47 57 71 82l2 2c48 47 105 54 122 55-1-17-5-71-53-120l5-5-6 5c-50-51-127-106-148-121z m-82-1c-13-13-17-48-18-52 0-2 1-4 2-6 2-1 4-2 6-1 3 0 38 4 51 18 15 14 17 35 6 46-11 12-32 9-47-5z m32-32c-6-6-22-11-35-13 2 13 7 29 13 35 9 10 22 12 28 6 6-6 3-19-6-28z m108 386c-141 0-256-115-256-256 0-141 115-256 256-256 141 0 256 115 256 256 0 141-115 256-256 256z m0-497c-133 0-241 108-241 241 0 133 108 241 241 241 133 0 241-108 241-241 0-133-108-241-241-241z m-136 362l6-3 3-7c1-1 2-1 3-1 1 0 2 0 2 1l3 7 6 3c1 1 1 2 1 2 0 1 0 2-1 3l-6 3-3 7c0 1-1 1-2 1-1 0-2 0-3-1l-3-7-6-3c-1-1-1-2-1-3 0 0 0-1 1-2z m11 5l1 1 0-1c1-1 1-1 1-1l3-1-3-2c0 0 0 0-1-1l0-1-1 1c0 1-1 1-1 1l-2 2 2 1c0 0 1 0 1 1z m88 62l6-3 3-7c1-1 2-1 3-1 1 0 2 0 2 1l3 7 6 3c1 1 1 2 1 3 0 1 0 2-1 2l-6 4-3 6c0 1-1 2-2 2-1 0-2-1-3-2l-3-6-6-4c-1 0-1-1-1-2 0-1 0-2 1-3z m11 5l1 2 0-2c1 0 1-1 1-1l2-1-2-2c0 0 0 0-1-1l0-1-1 1c0 1-1 1-1 1l-2 2 2 1c0 0 1 1 1 1z m152-339l-6 3-3 7c-1 1-1 1-3 1-1 0-2 0-2-1l-3-7-6-3c-1-1-1-2-1-2 0-1 0-2 1-3l6-3 3-7c0-1 1-1 2-1 2 0 2 0 3 1l3 7 6 3c1 1 1 2 1 3 0 0 0 1-1 2z m-11-5l-1-1 0 1c-1 1-1 1-1 1l-2 2 2 1c0 0 0 0 1 1l0 1 1-1c0-1 1-1 1-1l2-1-2-2c0 0-1 0-1-1z m-289 194l-3 1-2 4c-1 1-2 1-3 1-1 0-2 0-2-1l-2-4-3-1c-1-1-1-2-1-3 0-1 0-2 1-2l3-2 2-4c0 0 1-1 2-1 1 0 2 1 3 1l2 4 3 2c0 0 1 1 1 2 0 1-1 2-1 3z m352-133c-1-1-2-2-2-3 0-1 1-2 2-2l3-2 2-3c0-1 1-2 2-2 1 0 2 1 3 2l1 3 3 2c1 0 2 1 2 2 0 1-1 2-2 3l-3 1-1 4c-1 1-2 1-3 1-1 0-2 0-2-1l-2-4z m-226 181l3-2 1-3c1-1 2-2 3-2 1 0 2 1 2 2l2 3 3 2c1 1 1 2 1 3 0 1 0 2-1 2l-3 2-2 3c0 1-1 2-2 2-1 0-2-1-3-2l-1-3-3-2c-1 0-2-1-2-2 0-1 1-2 2-3z m214-76l-3-7-6-3c-1-1-1-2-1-3 0-1 0-2 1-2l6-4 3-6c0-1 1-2 2-2 1 0 2 1 3 2l3 6 6 4c1 0 1 1 1 2 0 1 0 2-1 3l-6 3-3 7c-1 1-2 1-3 1-1 0-2 0-2-1z m3-15l-1-2 0 2c-1 0-1 1-1 1l-2 1 2 1c0 1 0 1 1 2l0 1 1-1c0-1 1-1 1-2l2-1-2-1c0 0-1-1-1-1z m-68-62l-6 3-3 7c-1 1-2 2-3 2-1 0-2-1-2-2l-3-7-6-3c-1-1-2-1-2-2 0-1 1-2 2-3l6-3 3-7c0-1 1-1 2-1 1 0 2 0 3 1l3 7 6 3c0 1 1 2 1 3 0 1-1 1-1 2z m-11-5l-1-1 0 1c-1 1-1 1-2 1l-2 2 2 1c1 0 1 1 2 1l0 1 1-1c0 0 1-1 1-1l2-1-2-2c0 0-1 0-1-1z m-94-121l-6 3-3 7c0 1-1 1-2 1-1 0-2 0-3-1l-3-7-6-3c-1-1-1-2-1-3 0-1 0-2 1-2l6-4 3-6c1-1 2-2 3-2 1 0 2 1 2 2l3 6 6 4c1 0 1 1 1 2 0 1 0 2-1 3z m-11-5l0-2-1 2c0 0-1 1-1 1l-2 1 2 1c0 1 1 1 1 2l1 1 0-1c1-1 1-1 1-2l2-1-2-1c0 0 0-1-1-1z"/>
<glyph glyph-name="circle-settings" unicode="&#57439;" d="M76 436c-101-101-101-265 0-366 101-101 265-101 366 0 101 101 101 265 0 366-101 101-265 101-366 0z m352-352c-93-94-245-94-339 0-94 93-94 245 0 339 94 94 246 94 339 0 94-94 94-246 0-339z m-170 24c-3 0-7 0-11 0-10 0-16 6-18 15-2 7-3 13-5 20-2 10-10 14-19 8-5-3-11-7-17-11-8-6-16-5-23 2-1 1-2 2-3 3-26 25-25 25-6 53 7 11 4 19-9 21-34 7-34 7-34 42 1 15 5 20 20 23 5 1 11 2 16 4 9 2 13 10 8 18-3 5-7 11-11 16-7 12-6 18 8 32 18 18 23 20 35 12 6-4 11-7 16-11 9-5 17-2 19 8 2 7 3 14 5 21 2 9 8 14 17 14 8 1 17 1 25 0 10 0 16-6 18-15 1-6 3-13 4-19 2-11 10-14 19-9 6 4 12 8 18 12 8 5 16 4 23-2 0-1 1-2 2-3 24-23 28-24 7-54-8-11-4-18 9-21 33-7 33-7 33-41 0-15-4-20-19-24-6-1-11-2-17-3-9-2-13-10-8-18 4-6 8-12 12-18 7-12 5-17-13-35-13-13-19-15-30-8-6 4-11 8-17 11-9 6-17 2-19-8-1-3-1-5-2-8-5-25-7-27-33-27z m-11 272c-7-15-1-35-23-44-21-8-32 10-46 15-6-6-12-11-17-16 5-16 23-25 15-47-9-22-29-16-44-23-2-24-2-24 20-28 2-1 3-1 5-2 18-4 27-26 17-42-5-7-9-14-13-19 7-7 12-13 18-19 5 4 11 7 16 11 21 14 42 5 47-19 5-23 5-23 28-20 0 0 0 0 0 0 8 14 1 34 23 43 21 9 32-9 46-14 6 6 12 11 18 17-4 6-8 11-11 17-14 20-5 42 19 47 22 4 22 4 20 27 0 0 0 1 0 1-14 7-34 1-43 22-9 22 9 32 14 46-6 6-11 12-17 18-14-6-24-23-46-15-22 9-15 29-23 44-8 0-15 0-23 0z m-52-126c0 35 29 63 64 63 35 0 64-30 63-65 0-35-29-63-64-62-35 0-63 29-63 64z m119-1c0 31-25 56-55 56-31 0-55-25-56-55 0-31 24-56 55-56 31-1 56 24 56 55z m-92 0c0 19 17 36 36 36 20 1 37-16 37-36 0-19-16-36-36-36-19 0-36 16-37 36z m64 0c0 15-12 27-27 27-15 0-27-12-27-26-1-16 12-28 27-28 15 0 27 12 27 27z"/>
<glyph glyph-name="modal" unicode="&#57440;" d="M192 469l213 0c18 0 33-6 46-18 12-13 18-28 18-46l0-213c0-18-6-33-18-45-13-13-28-19-46-19l-213 0c-18 0-33 6-45 19-13 12-19 27-19 45l0 213c0 18 6 33 19 46 12 12 27 18 45 18z m-107-89l0-273c0-6 2-11 7-15 4-5 9-7 15-7l273 0c-4-12-12-22-23-30-11-8-23-12-37-12l-213 0c-18 0-33 6-46 18-12 13-18 28-18 46l0 213c0 14 4 26 12 37 8 11 18 19 30 23z m320 47l-213 0c-6 0-11-2-15-7-4-4-6-9-6-15l0-213c0-6 2-11 6-15 4-4 9-6 15-6l213 0c6 0 11 2 15 6 5 4 7 9 7 15l0 213c0 6-2 11-7 15-4 5-9 7-15 7z"/>
<glyph glyph-name="select-arrow" unicode="&#57441;" d="M397 352l19-21-160-171-160 171 19 21 141-151z"/>
<glyph glyph-name="circle-user" unicode="&#57442;" d="M253 512c-139 0-253-114-253-253 0-140 114-253 253-253 140 0 253 113 253 253 0 139-113 253-253 253z m0-488c-129 0-235 105-235 235 0 129 106 235 235 235 130 0 235-106 235-235 0-130-105-235-235-235z m0 231c38 0 69 30 69 68 0 38-31 69-69 69-38 0-68-31-68-69 0-38 30-68 68-68z m0 118c28 0 50-22 50-50 0-27-22-50-50-50-27 0-50 23-50 50 0 28 23 50 50 50z m0-132c-57 0-103-48-103-106 0-5 4-9 10-9 5 0 9 4 9 9 0 48 38 87 84 87 47 0 85-39 85-87 0-5 4-9 9-9 5 0 9 4 9 9 0 58-46 106-103 106z"/>
<glyph glyph-name="circle-upload" unicode="&#57443;" d="M253 506c-139 0-253-113-253-253 0-139 114-253 253-253 140 0 253 114 253 253 0 140-113 253-253 253z m0-488c-129 0-235 106-235 235 0 130 106 235 235 235 130 0 235-105 235-235 0-129-105-235-235-235z m47 208l9 9c1 0 1 1 1 2 0 1 0 1-1 2l-54 54c-1 1-3 1-4 0l-54-54c-1-1-1-3 0-4l9-9c1-2 3-2 4 0l34 34 0-137c0-2 2-3 3-3l12 0c2 0 3 1 3 3l0 137 34-34c1-2 3-1 4 0z m81 71c-8 31-36 54-68 54-9 0-19-2-27-6-16 26-44 42-75 42-48 0-87-39-87-87 0-1 0-2 0-3-22-11-36-33-36-58 0-34 28-63 63-63l72 0c2 0 3 2 3 3l0 12c0 2-1 3-3 3l-72 0c-25 0-45 21-45 46 0 21 14 39 35 43 1 1 2 2 2 4-1 4-1 8-1 13 0 38 31 69 69 69 29 0 56-19 65-46 1-1 1-2 2-2 1-1 2 0 3 0 9 8 21 12 32 12 27 0 49-21 51-47 0-1 1-2 3-3 20-5 34-23 34-43 0-25-21-46-46-46l-72 0c-1 0-3-1-3-3l0-12c0-1 2-3 3-3l72 0c35 0 64 29 64 64 0 25-15 47-38 57z"/>
<glyph glyph-name="circle-search" unicode="&#57444;" d="M253 506c-139 0-253-113-253-253 0-139 114-253 253-253 140 0 253 114 253 253 0 140-113 253-253 253z m0-488c-129 0-235 106-235 235 0 130 106 235 235 235 130 0 235-105 235-235 0-129-105-235-235-235z m127 268c1-46-33-87-79-95-20-3-39-1-57 8-3 2-4 1-6-1-21-21-42-42-63-63-9-8-19-11-30-7-11 4-17 13-18 24-1 10 3 18 9 24 21 21 41 41 62 62 2 2 2 3 1 6-15 35-12 69 12 100 15 19 35 31 60 35 28 4 54-3 76-22 17-15 28-34 32-56 1-5 1-10 1-15z m-95-80c43-1 79 36 79 79 0 43-35 78-77 79-45 1-81-36-81-78-1-45 37-81 79-80z m-144-52c0-5 2-10 8-12 6-3 11-2 15 3 21 20 42 41 63 62 1 1 1 2-1 4-5 4-11 9-15 15-2 2-2 2-4 1-21-21-41-42-62-62-3-3-4-6-4-11z m142 187c3 0 6-1 6-5 0-3-3-4-6-4-24 0-44-21-45-44 0-1 0-2 0-3-1-2-2-4-5-4-2 0-3 2-3 5 0 26 20 50 47 54 2 0 4 0 6 1z"/>
<glyph glyph-name="circle-list" unicode="&#57450;" d="M253 506c-139 0-253-113-253-253 0-139 114-253 253-253 140 0 253 114 253 253 0 140-113 253-253 253z m0-488c-129 0-235 106-235 235 0 130 106 235 235 235 130 0 235-105 235-235 0-129-105-235-235-235z m85 168l-112 0c-6 0-12 6-12 12 0 6 6 12 12 12l112 0c6 0 11-6 11-12 0-6-5-12-11-12z m-140 12c0 7-5 12-12 12l-5 0c-7 0-12-5-12-12 0-7 5-12 12-12l5 0c7 0 12 5 12 12z m140 44l-112 0c-6 0-12 5-12 11 0 7 6 12 12 12l112 0c6 0 11-5 11-12 0-6-5-11-11-11z m-140 11c0 7-5 13-12 13l-5 0c-7 0-12-6-12-13 0-7 5-12 12-12l5 0c7 0 12 5 12 12z m140 44l-112 0c-6 0-12 5-12 11 0 7 6 12 12 12l112 0c6 0 11-5 11-12 0-6-5-11-11-11z m-140 11c0 7-5 13-12 13l-5 0c-7 0-12-6-12-13 0-6 5-12 12-12l5 0c7 0 12 6 12 12z"/>
<glyph glyph-name="circle-folder" unicode="&#57451;" d="M255 0c-39 0-71 32-71 71 0 40 32 72 71 72 40 0 72-32 72-72 0-39-32-71-72-71z m0 111c-21 0-39-18-39-40 0-21 18-39 39-39 22 0 40 18 40 39 0 22-18 40-40 40z m0 258c-39 0-71 32-71 72 0 39 32 71 71 71 40 0 72-32 72-71 0-40-32-72-72-72z m0 111c-21 0-39-18-39-39 0-22 18-40 39-40 22 0 40 18 40 40 0 21-18 39-40 39z m0-295c-39 0-71 32-71 71 0 39 32 71 71 71 40 0 72-32 72-71 0-39-32-71-72-71z m0 110c-21 0-39-17-39-39 0-22 18-39 39-39 22 0 40 17 40 39 0 22-18 39-40 39z"/>
<glyph glyph-name="icon-circle-folder" unicode="&#57451;" d="M254 151c-28 0-57 0-85 0-5 0-10 0-14 2-13 6-19 16-19 30-1 50 0 100 0 151 0 8 3 15 8 21 5 6 11 9 18 10 2 0 4 0 6 0 18 0 35 0 53 0 0 0 1 0 1-1 7-10 14-20 21-30 0-1 1-1 1-1 32 0 64 0 96 0 15 0 27-9 31-24 1-3 1-5 1-8 0-39 0-78 0-117 0-8-2-15-6-21-6-7-12-10-21-12-2 0-4 0-6 0-28 0-57 0-85 0z m0 21c28 0 57 0 85 0 1 0 2 0 4 0 3 1 8 6 8 11 0 22 0 43 0 65 0 18 0 36 0 53 0 5-5 11-11 11-36 0-71 0-107 0-1 0-1 0-2 1-6 10-13 20-19 30-1 1-1 1-2 1-14 0-28 0-42 0-5 0-8-2-10-6-1-2-1-4-1-6 0-36 0-72 0-108 0-14 0-27 0-40 0-4 1-7 4-9 2-3 5-3 8-3 28 0 56 0 85 0z m0 340c-140 0-254-114-254-254 0-140 114-254 254-254 140 0 254 114 254 254 0 140-114 254-254 254z m0-489c-130 0-236 105-236 235 0 130 106 236 236 236 130 0 235-106 235-236 0-130-105-235-235-235z"/>
<glyph glyph-name="circle-file" unicode="&#57454;" d="M254 512c-140 0-254-114-254-254 0-140 114-254 254-254 140 0 254 114 254 254 0 140-114 254-254 254z m0-489c-130 0-236 105-236 235 0 130 106 236 236 236 130 0 235-106 235-236 0-130-105-235-235-235z m-96 235c0 33 0 66 0 100 0 2 0 4 1 6 2 4 5 6 10 7 0 0 1 0 1 0 37 0 73 0 109 0 6 0 11-2 16-4 4-2 7-4 10-7 10-10 21-21 32-32 2-3 5-5 7-8 4-5 6-11 6-18 0-48 0-96 0-144 0-7-4-11-9-12-1 0-2-1-3-1-56 0-112 0-168 0-6 0-11 5-12 10 0 1 0 2 0 4 0 33 0 66 0 99z m15 0c0-32 0-63 0-95 0-1 1-1 2-1 53 0 105 0 158 0 1 0 1 0 1 1 0 42 0 84 0 126 0 1 0 1-1 1-13 0-26 0-39 0-5 0-9 0-13 0-4 0-8 3-10 7-1 2-1 4-1 7 0 16 0 33 0 49 0 1 0 1-1 1-31 0-63 0-94 0-2 0-2 0-2-1 0-32 0-63 0-95z m161 48c-1 3-2 4-4 6-6 6-12 12-18 18-6 6-13 13-19 19-2 2-4 3-6 4-1 0-1 1-1-1 0-15 0-30 0-44 0-1 0-2 1-2 15 0 30 0 45 0 1 0 1 0 2 0z"/>
<glyph glyph-name="circle-pdf" unicode="&#57463;" d="M254 147c-28 0-55 0-83 0-5 0-8 2-11 6-1 1-1 4-1 6 0 0 0 0 0 1 0 65 0 131 0 196 0 2 0 4 1 5 0 4 5 8 11 8 2 0 4 0 6 0 35 0 70 0 104 0 3 0 5 0 8-1 4-1 8-3 12-6 2-1 3-3 4-4 6-5 11-11 17-17 6-6 13-13 19-20 6-5 8-11 8-19 0-48 0-96 0-144 0-6-6-11-12-11-20 0-41 0-61 0-7 0-15 0-22 0z m16 206c0 0-1 0-1 0-31 0-62 0-93 0-1 0-1 0-1-1 0-63 0-126 0-188 0-1 0-1 1-1 52 0 104 0 157 0 0 0 0 0 1 0 0 42 0 84 0 127-1 0-1 0-2 0-16 0-33 0-50 0-5 0-10 3-11 7-1 2-1 4-1 6 0 16 0 32 0 49 0 0 0 1 0 1z m16-1c0-15 0-31 0-46 16 0 31 0 47 0 0 0 0 0 0 0 0 0 0 0 0 1-1 1-2 2-3 4-3 2-6 5-9 8-10 10-19 20-29 30-2 2-4 2-6 3z m-69-144c2 3 4 6 6 9 6 12 12 23 16 35 2 4 3 8 4 12 0 1 0 1 0 2-1 6-2 12-3 18-1 3-1 7-1 10 1 2 1 5 2 7 0 2 1 4 3 5 2 0 4 0 5 0 3-1 5-3 5-6 0-2 0-4-1-6 0 0 0 0 0-1 0-4 0-8 0-12 0-5 0-10-1-15 0 0 0 0 0-1 2-7 6-15 11-21 3-5 7-9 12-12 2-1 3-2 5-2 0-1 1-1 1-1 5 1 11 1 16 1 5 0 10-1 14-2 3-1 5-2 6-4 1-2 1-4 0-6 0-1 0-1-1-2 0-2-2-3-4-3-4-1-8-1-12 0-7 2-14 4-20 7-2 1-4 1-6 1-15-2-30-5-45-10 0 0-1 0-1-1-4-6-8-12-12-18-3-4-6-8-10-10-2-2-4-3-6-3-1-1-3-1-4 0-1 1-3 1-4 2-2 1-2 3-1 5 0 3 2 6 4 8 4 5 9 9 15 13 2 1 3 1 4 2 1 1 2 1 2 0 1 0 1-1 1-1z m31 44c-4-12-9-23-15-34 11 4 22 7 34 9-8 7-14 15-19 25z m-33-48c-7-5-12-11-17-19 8 5 12 12 17 19z m98 15c-1 1-2 2-4 2-3 1-6 1-10 1-1 0-2 0-3 0 4-2 15-4 17-3z m-65 65c0 2 0 5 1 8 0 1 1 3 0 5 0 1 0 2-1 3-2-6-1-11 0-16z m6 228c-140 0-254-114-254-254 0-140 114-254 254-254 140 0 254 114 254 254 0 140-114 254-254 254z m0-489c-130 0-236 105-236 235 0 130 106 236 236 236 130 0 235-106 235-236 0-130-105-235-235-235z"/>
<glyph glyph-name="circle-file-text" unicode="&#57464;" d="M160 258c0 33 0 65 0 98 0 1 0 3 0 4 1 4 6 9 11 8 3 0 6 0 9 0 34 0 67 0 101 0 3 0 5 0 7-1 5-1 9-3 13-6 1-1 2-2 4-3 5-6 11-12 16-17 7-7 13-13 20-20 5-5 8-12 8-19 0-48 0-95 0-143 0-7-6-12-12-11 0 0 0 0 0 0-55 0-110 0-165 0-5 0-8 2-11 5-1 2-1 5-1 7 0 24 0 48 0 72 0 9 0 17 0 26z m173 32c0 0-1 0-1 0-17 0-34 0-50 0-5 0-10 3-11 7-1 1-1 3-1 5 0 17 0 33 0 49 0 1 0 1 0 2 0 0-1 0-1 0-31 0-62 0-93 0-1 0-1-1-1-2 0-62 0-124 0-186 0-2 0-2 1-2 52 0 104 0 156 0 0 0 1 0 1 0 0 43 0 84 0 127z m-47 62c0-16 0-31 0-47 15 0 31 0 46 0 0 2-1 4-3 5-3 3-5 6-8 9-10 10-20 20-30 30-1 1-3 2-5 3z m-32-78c14 0 29 0 43 0 2 0 5-2 5-5-1-2 0-5 0-7 0-2-2-4-4-4-1 0-1 0-1 0-29 0-57 0-86 0-1 0-3 1-4 2 0 0 0 1 0 2 0 3 0 5 0 7 0 3 2 5 4 5 15 0 29 0 43 0z m0-32c15 0 29 0 44 0 2 0 4-1 4-4 0-3 0-5 0-7 0-3-2-4-4-4-1-1-1 0-1 0-29 0-57 0-86 0-1 0-3 0-3 1-1 0-1 1-1 2 0 3 0 6 0 9 0 2 1 3 4 3 14 0 29 0 43 0z m0-32c14 0 29 0 43 0 1 0 2 0 2 0 2 0 3-2 3-3 0-3 0-6 0-8 0-2-1-3-3-4-1 0-2 0-2 0-29 0-57 0-86 0 0 0-1 0-1 0-2 1-3 2-3 4 0 2 0 5 0 8 0 2 1 3 4 3 4 1 8 0 13 0 10 0 20 0 30 0z m0 302c-140 0-254-114-254-254 0-140 114-254 254-254 140 0 254 114 254 254 0 140-114 254-254 254z m0-489c-130 0-236 105-236 235 0 130 106 236 236 236 130 0 235-106 235-236 0-130-105-235-235-235z"/>
<glyph glyph-name="circle-sheet" unicode="&#57465;" d="M340 321c-7 7-13 13-20 20-5 5-11 11-17 17-1 1-2 2-3 3-4 3-8 5-13 6-2 1-4 1-7 1-34 0-68 0-101 0-3 0-6 0-9 0-5 1-10-4-11-8 0-1 0-3 0-4 0-33 0-65 0-98 0-9 0-17 0-26 0-24 0-48 0-72 0-2 0-5 1-7 3-3 6-5 11-5 55 0 109 0 164 0 1 0 1 0 1 0 6-1 12 4 12 11-1 48 0 95-1 143 0 7-2 14-7 19z m-55 31c2-1 4-2 5-3 10-10 20-20 30-30 3-3 5-6 8-9 2-1 2-3 3-5-15 0-31 0-46 0 0 16 0 31 0 47z m47-189c0 0-1 0-1 0-52 0-104 0-156 0-1 0-1 0-1 2 0 62 0 124 0 186 0 1 0 2 1 2 31 0 62 0 93 0 0 0 1 0 1 0 0-1 0-1 0-2 0-16 0-32 0-49 0-2 0-4 1-5 1-4 6-8 11-7 16 0 33 0 50 0 0 0 1 0 1 0 0-43 0-84 0-127z m-78 349c-140 0-254-114-254-254 0-140 114-254 254-254 140 0 254 114 254 254 0 140-114 254-254 254z m0-489c-130 0-236 105-236 235 0 130 106 236 236 236 130 0 235-106 235-236 0-130-105-235-235-235z m45 243l-91 0c-3 0-5-2-5-4l0-31c0 0 0 0 0-1 0 0 0 0 0-1l0-30c0-2 2-4 5-4l91 0c2 0 4 2 4 4l0 30c0 1 0 1 0 1 0 1 0 1 0 1l0 31c0 2-2 4-4 4z m-5-30l-36 0 0 21 36 0z m-82 21l37 0 0-21-37 0z m0-32l37 0 0-21-37 0z m82-21l-36 0 0 21 36 0z"/>
<glyph glyph-name="circle-doc" unicode="&#57466;" d="M160 258c0 33 0 65 0 98 0 1 0 3 0 4 1 4 6 9 11 8 3 0 6 0 9 0 34 0 67 0 101 0 3 0 5 0 7-1 5-1 9-3 13-6 1-1 2-2 4-3 5-6 11-12 16-17 7-7 13-13 20-20 5-5 8-12 8-19 0-48 0-95 0-143 0-7-6-12-12-11 0 0 0 0 0 0-55 0-110 0-165 0-5 0-8 2-11 5-1 2-1 5-1 7 0 24 0 48 0 72 0 9 0 17 0 26z m173 32c0 0-1 0-1 0-17 0-34 0-50 0-5 0-10 3-11 7-1 1-1 3-1 5 0 17 0 33 0 49 0 1 0 1 0 2 0 0-1 0-1 0-31 0-62 0-93 0-1 0-1-1-1-2 0-62 0-124 0-186 0-2 0-2 1-2 52 0 104 0 156 0 0 0 1 0 1 0 0 43 0 84 0 127z m-47 62c0-16 0-31 0-47 15 0 31 0 46 0 0 2-1 4-3 5-3 3-5 6-8 9-10 10-20 20-30 30-1 1-3 2-5 3z m-32 160c-140 0-254-114-254-254 0-140 114-254 254-254 140 0 254 114 254 254 0 140-114 254-254 254z m0-489c-130 0-236 105-236 235 0 130 106 236 236 236 130 0 235-106 235-236 0-130-105-235-235-235z m-1 155l-14 0-8 30c0 1-1 3-1 6-1 4-2 6-2 7 0-1 0-3-1-7 0-3-1-5-1-6l-8-30-14 0-15 57 12 0 8-31c1-6 2-11 3-15 0 1 0 3 1 7 0 3 1 5 1 7l9 32 11 0 9-32c0-2 0-4 1-7 1-3 1-5 1-7 1 2 1 4 2 7 0 3 1 6 1 8l7 31 12 0z"/>
<glyph glyph-name="circle-image" unicode="&#57458;" d="M253 506c-139 0-253-113-253-253 0-139 114-253 253-253 140 0 253 114 253 253 0 140-113 253-253 253z m0-488c-129 0-235 106-235 235 0 130 106 235 235 235 130 0 235-105 235-235 0-129-105-235-235-235z m74 337l-148 0c-15 0-27-13-27-28l0-148c0-15 12-27 27-27l148 0c15 0 28 12 28 27l0 148c0 15-13 28-28 28z m9-176c0-5-4-9-9-9l-116 0 79 79 46-46z m0 50l-46 47-105-106-6 0c-5 0-9 4-9 9l0 148c0 5 4 9 9 9l148 0c5 0 9-4 9-9z m-120 89c-15 0-27-13-27-28 0-15 12-28 27-28 16 0 28 13 28 28 0 15-12 28-28 28z m0-37c-5 0-9 4-9 9 0 5 4 9 9 9 5 0 10-4 10-9 0-5-5-9-10-9z"/>
<glyph glyph-name="circle-link" unicode="&#57467;" d="M253 506c-139 0-253-113-253-253 0-139 114-253 253-253 140 0 253 114 253 253 0 140-113 253-253 253z m0-488c-129 0-235 106-235 235 0 130 106 235 235 235 130 0 235-105 235-235 0-129-105-235-235-235z m7 324l-28-29c-1-1-2-1-3-2 2 0 3 0 5 0 7 0 14-1 20-3l20 20c15 16 39 16 54 0 15-15 15-39 0-54l-20-20-8-9c-13-13-33-14-48-5-2 1-5 3-7 5-2 2-4 5-5 7-2 1-4 1-6 1-5 0-10-2-14-5 3-6 7-12 12-16 4-5 10-9 16-12 20-9 45-6 63 9 1 1 1 2 2 3l29 29c23 22 23 59 0 81-22 23-59 23-82 0z m-7-144l-21-20c-15-15-39-15-54 0-15 15-15 39 0 54l20 21 9 8c13 13 32 15 47 6 3-2 5-4 7-6 2-2 4-4 6-7 2 0 3-1 5-1 6 0 11 2 14 6-3 6-6 11-11 16-5 5-10 8-16 11-21 10-46 7-63-9-1-1-2-1-3-2l-29-29c-22-23-22-59 0-82 23-22 59-22 82 0l29 29c1 1 1 2 2 3-1 0-3 0-5 0-6 0-13 0-19 2z"/>
<glyph glyph-name="more" unicode="&#57468;" d="M314 73c0-37-30-64-64-63-36 1-63 31-61 66 1 34 30 60 63 60 37-1 62-31 62-63z m-125 189c0 34 28 62 63 62 34 0 62-29 62-63 0-35-29-63-63-63-35 1-63 29-62 64z m125 187c0-35-29-63-63-62-35 0-63 28-62 63 0 34 29 63 63 62 34-1 62-29 62-63z"/>
<glyph glyph-name="link" unicode="&#57446;" d="M303 116c3 0 7 0 11 1-2-2-4-4-6-6l-70-70c-54-55-143-55-197 0-55 54-55 143 0 197l70 70c2 2 4 4 6 6 43 38 103 45 153 22 14-7 27-16 38-28 12-11 21-24 27-38-8-9-20-14-32-14-5 0-10 1-14 2-4 6-8 12-14 17-5 6-11 10-17 14-36 22-83 17-114-14l-21-21-49-49c-37-36-37-95 0-131 36-37 95-37 132 0l48 49c16-4 32-7 49-7z m168 355c-54 55-143 55-197 0l-70-70c-2-2-4-4-6-6 4 1 8 1 11 1 17 0 33-3 49-7l49 49c36 37 95 37 131 0 37-36 37-95 0-131l-49-49-21-21c-31-31-78-36-114-14-6 4-12 9-17 14-6 5-10 11-14 17-4 1-9 2-14 2-12 0-24-5-32-14 6-14 15-27 27-38 11-12 24-21 38-27 50-24 111-17 153 21 2 2 4 4 6 6l70 70c55 54 55 143 0 197z"/>
</font>
</defs>
</svg>
